<svg width="187" height="62" viewBox="0 0 187 62" fill="none" xmlns="http://www.w3.org/2000/svg">
<rect width="187" height="62" rx="14" fill="black"/>
<path fill-rule="evenodd" clip-rule="evenodd" d="M40.8145 30.2018C40.7743 25.7702 44.47 23.6142 44.639 23.5138C42.546 20.4847 39.3019 20.0708 38.1619 20.0378C35.4372 19.7532 32.7943 21.6562 31.4063 21.6562C29.9906 21.6562 27.8533 20.0653 25.5497 20.1121C22.5854 20.1574 19.8123 21.8611 18.2914 24.5066C15.1525 29.9007 17.4935 37.8276 20.5007 42.1877C22.0051 44.3231 23.7629 46.7073 26.0636 46.6234C28.3146 46.5313 29.1554 45.1989 31.8717 45.1989C34.5631 45.1989 35.3527 46.6234 37.6992 46.5698C40.115 46.5313 41.6359 44.4248 43.0876 42.2702C44.826 39.8227 45.5241 37.4123 45.5518 37.2886C45.495 37.2693 40.8602 35.5134 40.8145 30.2018Z" fill="white"/>
<path fill-rule="evenodd" clip-rule="evenodd" d="M36.3832 17.1691C37.5939 15.6663 38.4222 13.6216 38.1923 11.5468C36.44 11.6238 34.2486 12.7499 32.9867 14.2198C31.8703 15.515 30.8729 17.638 31.1306 19.6345C33.0989 19.7803 35.1199 18.6486 36.3832 17.1691Z" fill="white"/>
<path fill-rule="evenodd" clip-rule="evenodd" d="M74.3096 43.6288H71.1639L69.4407 38.2539H63.4512L61.8097 43.6288H58.7471L64.6812 25.3303H68.3464L74.3096 43.6288ZM68.9218 35.997L67.3635 31.2189C67.1986 30.7308 66.8897 29.5813 66.434 27.7718H66.3786C66.1971 28.55 65.9049 29.6995 65.5032 31.2189L63.9725 35.997H68.9218Z" fill="white"/>
<path fill-rule="evenodd" clip-rule="evenodd" d="M89.5744 36.8681C89.5744 39.1121 88.9636 40.8859 87.7418 42.188C86.6475 43.3471 85.2887 43.926 83.6666 43.926C81.9157 43.926 80.658 43.3017 79.892 42.0532H79.8366V49.0039H76.8834V34.7767C76.8834 33.366 76.846 31.9181 76.7739 30.4331H79.3711L79.536 32.5245H79.5914C80.5763 30.9487 82.0709 30.1622 84.0766 30.1622C85.6447 30.1622 86.9537 30.7769 88.0009 32.0075C89.0508 33.2395 89.5744 34.8592 89.5744 36.8681ZM86.5575 36.975C86.5575 35.6908 86.2667 34.632 85.6821 33.7988C85.0435 32.9298 84.1861 32.4953 83.1112 32.4953C82.3826 32.4953 81.7205 32.7373 81.129 33.2144C80.5361 33.6956 80.1483 34.324 79.9668 35.1023C79.8754 35.4653 79.8297 35.7623 79.8297 35.996V38.196C79.8297 39.1558 80.1261 39.9656 80.719 40.627C81.3119 41.2884 82.082 41.6184 83.0295 41.6184C84.1418 41.6184 85.0075 41.1921 85.6267 40.3424C86.2473 39.4913 86.5575 38.3693 86.5575 36.975Z" fill="white"/>
<path fill-rule="evenodd" clip-rule="evenodd" d="M104.863 36.8681C104.863 39.1121 104.252 40.8859 103.029 42.188C101.936 43.3471 100.578 43.926 98.9555 43.926C97.2046 43.926 95.9469 43.3017 95.1823 42.0532H95.1269V49.0039H92.1736V34.7767C92.1736 33.366 92.1362 31.9181 92.0642 30.4331H94.6614L94.8263 32.5245H94.8817C95.8652 30.9487 97.3598 30.1622 99.3669 30.1622C100.934 30.1622 102.243 30.7769 103.293 32.0075C104.338 33.2395 104.863 34.8592 104.863 36.8681ZM101.854 36.9767C101.854 35.6925 101.562 34.6337 100.977 33.8005C100.339 32.9315 99.4839 32.497 98.4076 32.497C97.6776 32.497 97.0169 32.739 96.424 33.2161C95.8312 33.6974 95.4447 34.3257 95.2632 35.104C95.1732 35.467 95.1261 35.764 95.1261 35.9977V38.1977C95.1261 39.1575 95.4225 39.9674 96.0126 40.6287C96.6055 41.2887 97.3756 41.6201 98.3259 41.6201C99.4382 41.6201 100.304 41.1939 100.923 40.3441C101.544 39.493 101.854 38.371 101.854 36.9767Z" fill="white"/>
<path fill-rule="evenodd" clip-rule="evenodd" d="M121.954 38.4965C121.954 40.053 121.41 41.3194 120.317 42.297C119.116 43.3654 117.444 43.8989 115.296 43.8989C113.312 43.8989 111.722 43.5194 110.518 42.759L111.202 40.3157C112.499 41.0939 113.921 41.4844 115.471 41.4844C116.584 41.4844 117.45 41.2342 118.071 40.7364C118.691 40.2387 119 39.5704 119 38.7372C119 37.9947 118.745 37.369 118.234 36.8617C117.725 36.3543 116.876 35.8827 115.69 35.4468C112.463 34.2519 110.851 32.5015 110.851 30.1998C110.851 28.6955 111.416 27.4622 112.547 26.5024C113.675 25.5413 115.179 25.0614 117.06 25.0614C118.738 25.0614 120.131 25.3515 121.244 25.9304L120.505 28.3202C119.466 27.7592 118.292 27.4787 116.977 27.4787C115.938 27.4787 115.127 27.733 114.545 28.239C114.053 28.6914 113.806 29.2428 113.806 29.8959C113.806 30.6192 114.088 31.2173 114.653 31.6875C115.145 32.122 116.038 32.5923 117.335 33.0997C118.921 33.7335 120.086 34.4747 120.835 35.3244C121.582 36.1714 121.954 37.2315 121.954 38.4965Z" fill="white"/>
<path fill-rule="evenodd" clip-rule="evenodd" d="M131.717 32.6336H128.462V39.0397C128.462 40.6691 129.036 41.4831 130.185 41.4831C130.713 41.4831 131.151 41.4377 131.497 41.347L131.579 43.5731C130.997 43.789 130.231 43.8976 129.282 43.8976C128.116 43.8976 127.204 43.5442 126.546 42.8389C125.891 42.1321 125.562 40.9469 125.562 39.2817V32.6309H123.622V30.4309H125.562V28.015L128.462 27.146V30.4309H131.717V32.6336Z" fill="white"/>
<path fill-rule="evenodd" clip-rule="evenodd" d="M146.405 36.9222C146.405 38.9503 145.82 40.6154 144.654 41.9176C143.431 43.2582 141.807 43.9264 139.783 43.9264C137.833 43.9264 136.28 43.2843 135.122 42.0001C133.964 40.7158 133.385 39.0947 133.385 37.1408C133.385 35.0962 133.981 33.4214 135.176 32.1193C136.369 30.8158 137.979 30.1641 140.002 30.1641C141.953 30.1641 143.522 30.8062 144.706 32.0918C145.839 33.3389 146.405 34.9491 146.405 36.9222ZM143.342 37.0167C143.342 35.7998 143.081 34.7562 142.55 33.8858C141.931 32.8325 141.046 32.3073 139.899 32.3073C138.712 32.3073 137.81 32.8339 137.191 33.8858C136.66 34.7575 136.398 35.8177 136.398 37.0717C136.398 38.2885 136.66 39.3322 137.191 40.2012C137.829 41.2544 138.721 41.7797 139.872 41.7797C141 41.7797 141.885 41.2434 142.524 40.1737C143.068 39.2868 143.342 38.2322 143.342 37.0167Z" fill="white"/>
<path fill-rule="evenodd" clip-rule="evenodd" d="M156.004 33.0112C155.711 32.9576 155.4 32.9301 155.073 32.9301C154.034 32.9301 153.23 33.3192 152.665 34.0989C152.174 34.7864 151.927 35.6554 151.927 36.7045V43.6276H148.975L149.003 34.5884C149.003 33.0676 148.966 31.683 148.892 30.4345H151.464L151.572 32.959H151.654C151.966 32.0914 152.458 31.3929 153.131 30.869C153.789 30.3974 154.499 30.1622 155.265 30.1622C155.538 30.1622 155.785 30.1815 156.004 30.2159V33.0112Z" fill="white"/>
<path fill-rule="evenodd" clip-rule="evenodd" d="M169.211 36.4067C169.211 36.9319 169.176 37.3747 169.103 37.7363H160.243C160.278 39.0398 160.706 40.0367 161.528 40.7242C162.275 41.3388 163.24 41.6468 164.426 41.6468C165.738 41.6468 166.935 41.4392 168.011 41.0226L168.474 43.0576C167.216 43.6021 165.731 43.8729 164.018 43.8729C161.956 43.8729 160.338 43.2707 159.161 42.0676C157.986 40.8644 157.398 39.2488 157.398 37.2221C157.398 35.2324 157.945 33.5756 159.041 32.2542C160.187 30.8434 161.737 30.1381 163.688 30.1381C165.604 30.1381 167.054 30.8434 168.039 32.2542C168.819 33.3748 169.211 34.7608 169.211 36.4067ZM166.396 35.6452C166.415 34.7762 166.222 34.0255 165.822 33.3916C165.311 32.5762 164.526 32.1692 163.469 32.1692C162.503 32.1692 161.718 32.5666 161.118 33.3641C160.626 33.998 160.334 34.7583 160.244 35.6438H166.396V35.6452Z" fill="white"/>
<path d="M62.5518 17.2699H62.8831C63.1254 17.2699 63.364 17.2452 63.5992 17.1958C63.8343 17.1464 64.0409 17.0688 64.219 16.9629C64.4043 16.85 64.5539 16.7053 64.6679 16.5289C64.7819 16.3525 64.8389 16.1407 64.8389 15.8937C64.8389 15.428 64.6893 15.0786 64.39 14.8457C64.0908 14.6058 63.6989 14.4858 63.2144 14.4858C62.8439 14.4858 62.5233 14.5776 62.2526 14.7611C61.9889 14.9445 61.7823 15.181 61.6327 15.4703L61.0342 15.0257C61.2693 14.6234 61.5757 14.327 61.9533 14.1365C62.3381 13.9389 62.7798 13.8401 63.2785 13.8401C63.6205 13.8401 63.934 13.886 64.219 13.9777C64.5112 14.0624 64.7605 14.1894 64.9672 14.3588C65.1738 14.5282 65.3341 14.7399 65.4481 14.9939C65.5621 15.2409 65.6191 15.5268 65.6191 15.8514C65.6191 16.0702 65.5728 16.2748 65.4801 16.4654C65.3946 16.6489 65.2771 16.8147 65.1275 16.9629C64.985 17.1111 64.8211 17.2381 64.6358 17.344C64.4577 17.4428 64.276 17.5169 64.0908 17.5663V17.5875C64.3045 17.6157 64.5254 17.6686 64.7534 17.7463C64.9885 17.8168 65.1987 17.9227 65.384 18.0638C65.5763 18.205 65.7331 18.3885 65.8542 18.6143C65.9825 18.8401 66.0466 19.1189 66.0466 19.4506C66.0466 19.7964 65.9753 20.1104 65.8328 20.3927C65.6903 20.668 65.4944 20.9044 65.245 21.102C64.9957 21.2996 64.7 21.4513 64.358 21.5572C64.0231 21.663 63.6633 21.716 63.2785 21.716C62.9365 21.716 62.6302 21.6771 62.3594 21.5995C62.0887 21.5289 61.85 21.4266 61.6434 21.2925C61.4367 21.1514 61.2551 20.9855 61.0983 20.795C60.9487 20.5974 60.8169 20.3821 60.7029 20.1492L61.3655 19.7576C61.451 19.9552 61.5472 20.1351 61.6541 20.2975C61.7681 20.4527 61.9034 20.5868 62.0602 20.6997C62.2169 20.8126 62.3986 20.9008 62.6052 20.9644C62.819 21.0279 63.0648 21.0596 63.3427 21.0596C63.9625 21.0596 64.4399 20.915 64.7748 20.6256C65.1097 20.3292 65.2771 19.9375 65.2771 19.4506C65.2771 19.1542 65.213 18.9072 65.0847 18.7096C64.9565 18.512 64.7819 18.3567 64.561 18.2438C64.3473 18.1238 64.0943 18.0427 63.8022 18.0003C63.5172 17.9509 63.2109 17.9262 62.8831 17.9262H62.5518V17.2699Z" fill="white"/>
<path d="M71.5564 18.3285C71.5564 17.898 71.4424 17.5769 71.2144 17.3652C70.9864 17.1535 70.6551 17.0476 70.2205 17.0476C69.9213 17.0476 69.6434 17.1005 69.3869 17.2064C69.1304 17.3122 68.9131 17.4534 68.735 17.6298L68.3288 17.1535C68.5355 16.9488 68.8062 16.7794 69.1411 16.6453C69.4831 16.5112 69.8678 16.4442 70.2953 16.4442C70.5661 16.4442 70.819 16.483 71.0541 16.5606C71.2893 16.6312 71.4959 16.7406 71.674 16.8888C71.8521 17.037 71.9911 17.224 72.0908 17.4499C72.1906 17.6757 72.2404 17.9403 72.2404 18.2438V20.4139C72.2404 20.6044 72.2476 20.802 72.2618 21.0067C72.2761 21.2114 72.2974 21.3843 72.3259 21.5254H71.674C71.6526 21.4054 71.6348 21.2749 71.6206 21.1337C71.6063 20.9926 71.5992 20.855 71.5992 20.7209H71.5778C71.3498 21.0526 71.0898 21.2925 70.7976 21.4407C70.5126 21.5819 70.1671 21.6524 69.761 21.6524C69.5686 21.6524 69.3691 21.6242 69.1625 21.5678C68.963 21.5184 68.7777 21.4337 68.6067 21.3137C68.4428 21.1937 68.3039 21.0385 68.1899 20.8479C68.083 20.6574 68.0296 20.4245 68.0296 20.1492C68.0296 19.7682 68.1258 19.4682 68.3182 19.2495C68.5177 19.0236 68.7813 18.8578 69.109 18.7519C69.4368 18.639 69.8108 18.5684 70.2312 18.5402C70.6587 18.5049 71.1004 18.4873 71.5564 18.4873V18.3285ZM71.3427 19.0483C71.0434 19.0483 70.7406 19.0624 70.4343 19.0907C70.135 19.1118 69.8607 19.1612 69.6113 19.2389C69.3691 19.3094 69.1696 19.4153 69.0128 19.5564C68.8561 19.6976 68.7777 19.8846 68.7777 20.1175C68.7777 20.2939 68.8098 20.4421 68.8739 20.5621C68.9451 20.6821 69.0378 20.7809 69.1518 20.8585C69.2658 20.9291 69.3905 20.982 69.5258 21.0173C69.6683 21.0455 69.8108 21.0596 69.9533 21.0596C70.2098 21.0596 70.4378 21.0173 70.6373 20.9326C70.8368 20.8409 71.0043 20.7209 71.1396 20.5727C71.275 20.4174 71.3783 20.241 71.4496 20.0434C71.5208 19.8458 71.5564 19.6376 71.5564 19.4188V19.0483H71.3427Z" fill="white"/>
<path d="M75.4646 21.5254H74.7379V16.5712H77.8372V17.1746H75.4646V21.5254Z" fill="white"/>
<path d="M80.3188 24.066H79.592V16.5712H80.3188V17.4287H80.3508C80.5575 17.1041 80.8318 16.8606 81.1738 16.6983C81.5229 16.5289 81.8756 16.4442 82.2318 16.4442C82.6237 16.4442 82.9764 16.5112 83.2899 16.6453C83.6105 16.7794 83.8812 16.9629 84.1021 17.1958C84.3301 17.4287 84.5047 17.7039 84.6258 18.0215C84.754 18.3391 84.8182 18.6813 84.8182 19.0483C84.8182 19.4153 84.754 19.7576 84.6258 20.0751C84.5047 20.3927 84.3301 20.668 84.1021 20.9008C83.8812 21.1337 83.6105 21.3172 83.2899 21.4513C82.9764 21.5854 82.6237 21.6524 82.2318 21.6524C81.8756 21.6524 81.5229 21.5713 81.1738 21.409C80.8318 21.2396 80.5575 20.9996 80.3508 20.6891H80.3188V24.066ZM84.0487 19.0483C84.0487 18.7731 84.0059 18.5155 83.9204 18.2756C83.8349 18.0286 83.7102 17.8168 83.5464 17.6404C83.3896 17.4569 83.1937 17.3122 82.9586 17.2064C82.7234 17.1005 82.4562 17.0476 82.157 17.0476C81.8791 17.0476 81.6226 17.1005 81.3875 17.2064C81.1524 17.3052 80.9493 17.4463 80.7783 17.6298C80.6073 17.8062 80.472 18.018 80.3722 18.265C80.2796 18.5049 80.2333 18.766 80.2333 19.0483C80.2333 19.3306 80.2796 19.5953 80.3722 19.8423C80.472 20.0822 80.6073 20.2904 80.7783 20.4668C80.9493 20.6433 81.1524 20.7844 81.3875 20.8903C81.6226 20.9891 81.8791 21.0385 82.157 21.0385C82.4562 21.0385 82.7234 20.9891 82.9586 20.8903C83.1937 20.7844 83.3896 20.6433 83.5464 20.4668C83.7102 20.2833 83.8349 20.0716 83.9204 19.8317C84.0059 19.5847 84.0487 19.3236 84.0487 19.0483Z" fill="white"/>
<path d="M88.7647 20.7526H88.786L90.3357 16.5712H91.1266L88.6364 22.8063C88.4868 23.1874 88.2944 23.4908 88.0593 23.7167C87.8313 23.9496 87.5 24.066 87.0654 24.066C86.8445 24.066 86.6272 24.0448 86.4134 24.0025L86.4882 23.3462C86.6592 23.4026 86.8374 23.4309 87.0226 23.4309C87.272 23.4309 87.4679 23.3532 87.6104 23.198C87.7529 23.0498 87.8776 22.8345 87.9845 22.5522L88.3906 21.5148L86.2531 16.5712H87.0654L88.7647 20.7526Z" fill="white"/>
<path d="M93.08 17.7145L92.5136 17.3758C92.5991 17.1923 92.7238 17.03 92.8876 16.8888C93.0301 16.7688 93.219 16.6594 93.4541 16.5606C93.6892 16.4548 93.9885 16.4019 94.3518 16.4019C94.6724 16.4019 94.9468 16.4442 95.1748 16.5289C95.4028 16.6136 95.588 16.7265 95.7305 16.8676C95.873 17.0017 95.9763 17.1535 96.0404 17.3228C96.1117 17.4851 96.1473 17.6439 96.1473 17.7992C96.1473 17.9615 96.1152 18.1132 96.0511 18.2544C95.987 18.3955 95.8979 18.519 95.7839 18.6249C95.6699 18.7307 95.5346 18.8154 95.3778 18.8789C95.2211 18.9425 95.0536 18.9777 94.8755 18.9848V19.0166C95.0679 19.0166 95.2531 19.0377 95.4313 19.0801C95.6094 19.1224 95.7626 19.1895 95.8908 19.2812C96.0262 19.373 96.1331 19.4894 96.2114 19.6305C96.2898 19.7717 96.329 19.9411 96.329 20.1387C96.329 20.5833 96.1473 20.9467 95.7839 21.229C95.4206 21.5113 94.9254 21.6524 94.2984 21.6524C93.9136 21.6524 93.5966 21.603 93.3472 21.5042C93.105 21.3984 92.9126 21.2855 92.7701 21.1655C92.5991 21.0243 92.4744 20.8585 92.396 20.668L92.9838 20.308C93.0408 20.4562 93.1335 20.5868 93.2617 20.6997C93.3615 20.7985 93.5004 20.8867 93.6785 20.9644C93.8638 21.042 94.0953 21.0808 94.3732 21.0808C94.7579 21.0808 95.0608 20.9961 95.2816 20.8267C95.5025 20.6574 95.6129 20.4315 95.6129 20.1492C95.6129 19.9164 95.5203 19.7188 95.3351 19.5564C95.1569 19.3871 94.8506 19.3024 94.416 19.3024H93.7747V18.7519H94.3091C94.6297 18.7519 94.9004 18.6813 95.1213 18.5402C95.3422 18.392 95.4526 18.1697 95.4526 17.8733C95.4526 17.7533 95.4313 17.6369 95.3885 17.524C95.3458 17.411 95.2781 17.3122 95.1854 17.2276C95.0999 17.1429 94.9859 17.0758 94.8434 17.0264C94.7009 16.97 94.5335 16.9417 94.3411 16.9417C94.0846 16.9417 93.8745 16.9841 93.7106 17.0688C93.5467 17.1464 93.4185 17.2346 93.3258 17.3334C93.2118 17.4463 93.1299 17.5734 93.08 17.7145Z" fill="white"/>
<path d="M102.318 17.4922L99.2508 21.5254H98.5027V16.5712H99.2508V20.4562L102.318 16.5712H103.066V21.5254H102.318V17.4922Z" fill="white"/>
<path d="M104.756 16.5712H109.149V17.1746H107.257V21.5254H106.53V17.1746H104.756V16.5712Z" fill="white"/>
<path d="M114.697 18.6672C114.676 18.2015 114.523 17.8168 114.238 17.5134C113.96 17.2029 113.561 17.0476 113.041 17.0476C112.799 17.0476 112.574 17.0935 112.367 17.1852C112.161 17.2699 111.979 17.3899 111.822 17.5451C111.666 17.6933 111.541 17.8662 111.448 18.0638C111.356 18.2544 111.302 18.4555 111.288 18.6672H114.697ZM115.435 18.9001C115.435 18.9495 115.435 19.0024 115.435 19.0589C115.435 19.1154 115.431 19.1754 115.424 19.2389H111.277C111.284 19.4859 111.334 19.7188 111.427 19.9375C111.52 20.1563 111.648 20.3469 111.812 20.5092C111.976 20.6715 112.168 20.802 112.389 20.9008C112.61 20.9926 112.848 21.0385 113.105 21.0385C113.482 21.0385 113.807 20.9538 114.077 20.7844C114.355 20.608 114.565 20.4068 114.708 20.181L115.253 20.6044C114.954 20.9785 114.622 21.2466 114.259 21.409C113.903 21.5713 113.518 21.6524 113.105 21.6524C112.734 21.6524 112.389 21.5889 112.068 21.4619C111.755 21.3278 111.484 21.1443 111.256 20.9114C111.028 20.6785 110.846 20.4033 110.711 20.0857C110.583 19.7682 110.519 19.4224 110.519 19.0483C110.519 18.6743 110.583 18.3285 110.711 18.0109C110.839 17.6933 111.017 17.4181 111.245 17.1852C111.473 16.9523 111.74 16.7724 112.047 16.6453C112.353 16.5112 112.685 16.4442 113.041 16.4442C113.433 16.4442 113.778 16.5112 114.077 16.6453C114.377 16.7724 114.626 16.9488 114.826 17.1746C115.025 17.3934 115.175 17.651 115.274 17.9474C115.381 18.2438 115.435 18.5614 115.435 18.9001Z" fill="white"/>
<path d="M123.25 21.5254H120.963V16.5712H123.122C123.756 16.5712 124.226 16.6947 124.533 16.9417C124.839 17.1817 124.992 17.5028 124.992 17.9051C124.992 18.0885 124.964 18.2438 124.907 18.3708C124.85 18.4908 124.768 18.5931 124.661 18.6778C124.561 18.7554 124.443 18.819 124.308 18.8684C124.173 18.9178 124.03 18.9636 123.881 19.006C124.066 19.0201 124.24 19.0518 124.404 19.1012C124.568 19.1507 124.711 19.2248 124.832 19.3236C124.96 19.4153 125.06 19.5353 125.131 19.6835C125.202 19.8246 125.238 19.9975 125.238 20.2022C125.238 20.6044 125.07 20.9255 124.736 21.1655C124.401 21.4054 123.906 21.5254 123.25 21.5254ZM121.69 20.9432H122.619C122.883 20.9432 123.125 20.9397 123.346 20.9326C123.567 20.9185 123.759 20.8867 123.923 20.8373C124.087 20.7809 124.215 20.6962 124.308 20.5833C124.401 20.4704 124.447 20.3116 124.447 20.1069C124.447 19.7682 124.319 19.5459 124.062 19.44C123.813 19.3341 123.474 19.2812 123.047 19.2812H121.69V20.9432ZM123.079 18.7625C123.435 18.7625 123.713 18.7096 123.913 18.6037C124.119 18.4908 124.223 18.272 124.223 17.9474C124.223 17.7639 124.183 17.6192 124.105 17.5134C124.027 17.4075 123.916 17.3299 123.774 17.2805C123.631 17.224 123.46 17.1887 123.261 17.1746C123.061 17.1605 122.84 17.1535 122.598 17.1535H121.69V18.7625H123.079Z" fill="white"/>
</svg>
