<svg width="187" height="62" viewBox="0 0 187 62" fill="none" xmlns="http://www.w3.org/2000/svg">
<rect width="187" height="62" rx="14" fill="black"/>
<path d="M65.28 19.8296C65.1509 20.0182 64.993 20.1963 64.8065 20.3639C64.6271 20.5315 64.4154 20.6782 64.1715 20.8039C63.9347 20.9296 63.6692 21.0274 63.375 21.0973C63.088 21.1741 62.7723 21.2125 62.4279 21.2125C61.8539 21.2125 61.323 21.1147 60.8351 20.9192C60.3472 20.7236 59.9274 20.4547 59.5759 20.1125C59.2243 19.7633 58.948 19.3512 58.7471 18.8763C58.5534 18.4014 58.4565 17.8811 58.4565 17.3154C58.4565 16.7496 58.557 16.2293 58.7579 15.7544C58.9588 15.2795 59.235 14.8709 59.5866 14.5287C59.9454 14.1795 60.3651 13.9071 60.8458 13.7115C61.3337 13.516 61.8611 13.4182 62.4279 13.4182C62.7078 13.4182 62.9804 13.4461 63.2459 13.502C63.5185 13.5579 63.7733 13.6382 64.01 13.743C64.2468 13.8408 64.4621 13.963 64.6558 14.1096C64.8495 14.2493 65.011 14.41 65.1401 14.5915L64.4944 15.0525C64.4154 14.9338 64.3078 14.815 64.1715 14.6963C64.0423 14.5776 63.8881 14.4728 63.7087 14.382C63.5293 14.2912 63.332 14.2179 63.1167 14.162C62.9087 14.1061 62.6827 14.0782 62.4387 14.0782C61.9436 14.0782 61.4988 14.1655 61.1041 14.3401C60.7167 14.5147 60.3866 14.7522 60.114 15.0525C59.8413 15.3458 59.6333 15.6881 59.4898 16.0792C59.3463 16.4703 59.2745 16.8823 59.2745 17.3154C59.2745 17.7484 59.3463 18.1604 59.4898 18.5515C59.6404 18.9427 59.8521 19.2884 60.1247 19.5887C60.3974 19.882 60.7274 20.116 61.1149 20.2906C61.5095 20.4652 61.9508 20.5525 62.4387 20.5525C62.8764 20.5525 63.2925 20.4652 63.6872 20.2906C64.0818 20.116 64.4118 19.8366 64.6773 19.4525L65.28 19.8296Z" fill="white"/>
<path d="M67.9301 18.1325C68.2171 18.1325 68.4861 18.1535 68.7373 18.1954L70.5454 16.1211H71.3633L69.4045 18.342C70.0001 18.5236 70.4629 18.8344 70.7929 19.2744C71.123 19.7074 71.3849 20.2906 71.5786 21.0239H70.7606C70.6602 20.5909 70.531 20.2312 70.3732 19.9449C70.2225 19.6515 70.0288 19.4176 69.792 19.243C69.5624 19.0614 69.2933 18.9357 68.9848 18.8658C68.6763 18.789 68.3247 18.7471 67.9301 18.7401V21.0239H67.1982V16.1211H67.9301V18.1325Z" fill="white"/>
<path d="M76.9326 17.8601C76.9326 17.4341 76.8178 17.1163 76.5882 16.9068C76.3586 16.6973 76.025 16.5925 75.5873 16.5925C75.286 16.5925 75.0061 16.6449 74.7478 16.7496C74.4895 16.8544 74.2707 16.9941 74.0913 17.1687L73.6823 16.6973C73.8904 16.4947 74.1631 16.3271 74.5003 16.1944C74.8447 16.0617 75.2321 15.9954 75.6626 15.9954C75.9353 15.9954 76.19 16.0338 76.4268 16.1106C76.6636 16.1804 76.8716 16.2887 77.051 16.4354C77.2304 16.582 77.3703 16.7671 77.4708 16.9906C77.5712 17.2141 77.6214 17.476 77.6214 17.7763V19.9239C77.6214 20.1125 77.6286 20.3081 77.643 20.5106C77.6573 20.7131 77.6788 20.8842 77.7075 21.0239H77.051C77.0295 20.9052 77.0116 20.776 76.9972 20.6363C76.9829 20.4966 76.9757 20.3604 76.9757 20.2277H76.9542C76.7246 20.556 76.4627 20.7934 76.1685 20.9401C75.8815 21.0798 75.5335 21.1496 75.1245 21.1496C74.9308 21.1496 74.7299 21.1217 74.5218 21.0658C74.3209 21.0169 74.1344 20.9331 73.9622 20.8144C73.7971 20.6957 73.6572 20.542 73.5424 20.3534C73.4348 20.1649 73.381 19.9344 73.381 19.662C73.381 19.2849 73.4778 18.9881 73.6716 18.7715C73.8725 18.5481 74.1379 18.3839 74.468 18.2792C74.7981 18.1674 75.1747 18.0976 75.5981 18.0696C76.0286 18.0347 76.4734 18.0173 76.9326 18.0173V17.8601ZM76.7174 18.5725C76.416 18.5725 76.1111 18.5865 75.8026 18.6144C75.5012 18.6354 75.225 18.6842 74.9738 18.7611C74.7299 18.8309 74.529 18.9357 74.3711 19.0754C74.2133 19.215 74.1344 19.4001 74.1344 19.6306C74.1344 19.8052 74.1666 19.9519 74.2312 20.0706C74.303 20.1893 74.3962 20.2871 74.511 20.3639C74.6258 20.4338 74.7514 20.4861 74.8877 20.5211C75.0312 20.549 75.1747 20.563 75.3182 20.563C75.5765 20.563 75.8061 20.5211 76.007 20.4373C76.208 20.3465 76.3766 20.2277 76.5129 20.0811C76.6492 19.9274 76.7533 19.7528 76.825 19.5573C76.8968 19.3617 76.9326 19.1557 76.9326 18.9392V18.5725H76.7174Z" fill="white"/>
<path d="M79.749 16.1211H80.4808V16.8335C80.4808 17.1547 80.4916 17.4271 80.5131 17.6506C80.5347 17.8741 80.5921 18.0592 80.6853 18.2058C80.7858 18.3455 80.94 18.4468 81.1481 18.5096C81.3562 18.5725 81.6432 18.6039 82.0091 18.6039H83.1069V16.1211H83.8388V21.0239H83.1069V19.2011H81.9984C81.532 19.2011 81.1517 19.1592 80.8575 19.0754C80.5634 18.9915 80.3337 18.8658 80.1687 18.6982C80.0037 18.5306 79.8925 18.3246 79.8351 18.0801C79.7777 17.8287 79.749 17.5423 79.749 17.2211V16.1211Z" fill="white"/>
<path d="M89.5766 17.8601C89.5766 17.4341 89.4618 17.1163 89.2322 16.9068C89.0026 16.6973 88.6689 16.5925 88.2312 16.5925C87.9299 16.5925 87.6501 16.6449 87.3918 16.7496C87.1335 16.8544 86.9146 16.9941 86.7353 17.1687L86.3263 16.6973C86.5343 16.4947 86.807 16.3271 87.1442 16.1944C87.4886 16.0617 87.8761 15.9954 88.3066 15.9954C88.5792 15.9954 88.834 16.0338 89.0707 16.1106C89.3075 16.1804 89.5156 16.2887 89.695 16.4354C89.8743 16.582 90.0143 16.7671 90.1147 16.9906C90.2152 17.2141 90.2654 17.476 90.2654 17.7763V19.9239C90.2654 20.1125 90.2726 20.3081 90.2869 20.5106C90.3013 20.7131 90.3228 20.8842 90.3515 21.0239H89.695C89.6734 20.9052 89.6555 20.776 89.6411 20.6363C89.6268 20.4966 89.6196 20.3604 89.6196 20.2277H89.5981C89.3685 20.556 89.1066 20.7934 88.8124 20.9401C88.5254 21.0798 88.1774 21.1496 87.7685 21.1496C87.5747 21.1496 87.3738 21.1217 87.1658 21.0658C86.9649 21.0169 86.7783 20.9331 86.6061 20.8144C86.4411 20.6957 86.3012 20.542 86.1864 20.3534C86.0787 20.1649 86.0249 19.9344 86.0249 19.662C86.0249 19.2849 86.1218 18.9881 86.3155 18.7715C86.5164 18.5481 86.7819 18.3839 87.1119 18.2792C87.442 18.1674 87.8187 18.0976 88.242 18.0696C88.6725 18.0347 89.1174 18.0173 89.5766 18.0173V17.8601ZM89.3613 18.5725C89.06 18.5725 88.755 18.5865 88.4465 18.6144C88.1451 18.6354 87.8689 18.6842 87.6178 18.7611C87.3738 18.8309 87.1729 18.9357 87.0151 19.0754C86.8572 19.215 86.7783 19.4001 86.7783 19.6306C86.7783 19.8052 86.8106 19.9519 86.8752 20.0706C86.9469 20.1893 87.0402 20.2871 87.155 20.3639C87.2698 20.4338 87.3954 20.4861 87.5317 20.5211C87.6752 20.549 87.8187 20.563 87.9622 20.563C88.2205 20.563 88.4501 20.5211 88.651 20.4373C88.8519 20.3465 89.0205 20.2277 89.1568 20.0811C89.2932 19.9274 89.3972 19.7528 89.4689 19.5573C89.5407 19.3617 89.5766 19.1557 89.5766 18.9392V18.5725H89.3613Z" fill="white"/>
<path d="M91.9624 16.1211H96.3858V16.7182H94.4809V21.0239H93.749V16.7182H91.9624V16.1211Z" fill="white"/>
<path d="M98.82 16.1211V17.8182H100.068C100.442 17.8182 100.757 17.8601 101.016 17.9439C101.281 18.0208 101.493 18.1325 101.651 18.2792C101.816 18.4188 101.934 18.5865 102.006 18.782C102.077 18.9776 102.113 19.1871 102.113 19.4106C102.113 19.6341 102.07 19.8436 101.984 20.0392C101.898 20.2347 101.769 20.4058 101.597 20.5525C101.432 20.6992 101.224 20.8144 100.972 20.8982C100.729 20.982 100.442 21.0239 100.111 21.0239H98.0881V16.1211H98.82ZM98.82 20.4477H99.9393C100.14 20.4477 100.327 20.4338 100.499 20.4058C100.671 20.3709 100.818 20.315 100.94 20.2382C101.069 20.1544 101.166 20.0461 101.231 19.9134C101.303 19.7808 101.338 19.6131 101.338 19.4106C101.338 19.2081 101.303 19.0404 101.231 18.9077C101.159 18.775 101.059 18.6703 100.929 18.5935C100.8 18.5166 100.646 18.4642 100.467 18.4363C100.294 18.4014 100.108 18.3839 99.907 18.3839H98.82V20.4477Z" fill="white"/>
<path d="M109.914 21.0239H107.61V16.1211H109.785C110.423 16.1211 110.897 16.2433 111.205 16.4877C111.514 16.7252 111.668 17.043 111.668 17.4411C111.668 17.6227 111.639 17.7763 111.582 17.902C111.524 18.0208 111.442 18.122 111.334 18.2058C111.234 18.2827 111.115 18.3455 110.979 18.3944C110.843 18.4433 110.699 18.4887 110.549 18.5306C110.735 18.5446 110.911 18.576 111.076 18.6249C111.241 18.6738 111.385 18.7471 111.507 18.8449C111.636 18.9357 111.736 19.0544 111.808 19.2011C111.88 19.3408 111.916 19.5119 111.916 19.7144C111.916 20.1125 111.747 20.4303 111.41 20.6677C111.072 20.9052 110.574 21.0239 109.914 21.0239ZM108.342 20.4477H109.279C109.544 20.4477 109.788 20.4442 110.011 20.4373C110.233 20.4233 110.427 20.3919 110.592 20.343C110.757 20.2871 110.886 20.2033 110.979 20.0915C111.072 19.9798 111.119 19.8227 111.119 19.6201C111.119 19.2849 110.99 19.0649 110.732 18.9601C110.48 18.8554 110.14 18.803 109.709 18.803H108.342V20.4477ZM109.741 18.2896C110.1 18.2896 110.38 18.2373 110.581 18.1325C110.789 18.0208 110.893 17.8042 110.893 17.483C110.893 17.3014 110.854 17.1582 110.775 17.0535C110.696 16.9487 110.585 16.8719 110.441 16.823C110.298 16.7671 110.125 16.7322 109.924 16.7182C109.724 16.7042 109.501 16.6973 109.257 16.6973H108.342V18.2896H109.741Z" fill="white"/>
<path fill-rule="evenodd" clip-rule="evenodd" d="M94.6578 32.5483C91.429 32.5483 88.8729 34.9054 88.8729 38.1792C88.8729 41.3221 91.429 43.8102 94.6578 43.8102C97.8866 43.8102 100.443 41.453 100.443 38.1792C100.443 34.7745 97.8866 32.5483 94.6578 32.5483ZM94.6557 41.4527C92.9068 41.4527 91.427 40.0122 91.427 38.0479C91.427 36.0836 92.9068 34.6431 94.6557 34.6431C96.4047 34.6431 97.8845 35.9526 97.8845 38.0479C97.8845 40.0122 96.4047 41.4527 94.6557 41.4527ZM82.1459 32.5483C78.9172 32.5483 76.361 34.9054 76.361 38.1792C76.361 41.3221 78.9172 43.8102 82.1459 43.8102C85.3747 43.8102 87.9308 41.453 87.9308 38.1792C87.9308 34.7745 85.3747 32.5483 82.1459 32.5483ZM82.1447 41.4527C80.3958 41.4527 78.916 40.0122 78.916 38.0479C78.916 36.0836 80.3958 34.6431 82.1447 34.6431C83.8936 34.6431 85.3735 35.9526 85.3735 38.0479C85.3735 40.0122 83.8936 41.4527 82.1447 41.4527ZM67.2124 34.2498V36.607H72.9973C72.8628 37.9165 72.3246 38.9641 71.652 39.6189C70.8448 40.4046 69.4994 41.3213 67.2124 41.3213C63.58 41.3213 60.8894 38.5713 60.8894 35.0356C60.8894 31.4998 63.7145 28.7498 67.2124 28.7498C69.0958 28.7498 70.5757 29.5356 71.652 30.4522L73.4009 28.7498C71.921 27.4403 70.0376 26.3927 67.3469 26.3927C62.5038 26.3927 58.3333 30.3213 58.3333 35.0356C58.3333 39.7498 62.5038 43.6784 67.3469 43.6784C70.0376 43.6784 71.921 42.8927 73.5354 41.1903C75.1498 39.6189 75.6879 37.3927 75.6879 35.6903C75.6879 35.1665 75.6879 34.6427 75.5534 34.2498H67.2124ZM128.289 36.084C127.751 34.7745 126.406 32.5483 123.446 32.5483C120.486 32.5483 118.065 34.7745 118.065 38.1792C118.065 41.3221 120.486 43.8102 123.715 43.8102C126.271 43.8102 127.886 42.2388 128.424 41.3221L126.54 40.0126C125.868 40.9292 125.06 41.584 123.715 41.584C122.37 41.584 121.563 41.0602 120.89 39.8816L128.558 36.7388L128.289 36.084ZM120.485 37.9169C120.485 35.8217 122.234 34.6431 123.445 34.6431C124.386 34.6431 125.328 35.1669 125.597 35.8217L120.485 37.9169ZM114.165 43.2867H116.719V26.9177H114.165V43.2867ZM110.128 33.7284C109.455 33.0736 108.379 32.4188 107.034 32.4188C104.209 32.4188 101.518 34.9069 101.518 38.0498C101.518 41.1927 104.074 43.5498 107.034 43.5498C108.379 43.5498 109.455 42.895 109.993 42.2403H110.128V43.026C110.128 45.1212 108.917 46.2998 107.034 46.2998C105.554 46.2998 104.478 45.2522 104.209 44.3355L102.056 45.2522C102.729 46.6927 104.343 48.526 107.168 48.526C110.128 48.526 112.55 46.8236 112.55 42.7641V32.8117H110.128V33.7284ZM107.168 41.4527C105.419 41.4527 103.939 40.0122 103.939 38.0479C103.939 36.0836 105.419 34.6431 107.168 34.6431C108.917 34.6431 110.262 36.0836 110.262 38.0479C110.262 40.0122 108.917 41.4527 107.168 41.4527ZM139.996 26.9177H133.942V43.2867H136.498V37.132H139.996C142.821 37.132 145.512 35.1677 145.512 32.0248C145.512 28.882 142.821 26.9177 139.996 26.9177ZM140.133 34.7747H136.5V29.1437H140.133C142.016 29.1437 143.092 30.7152 143.092 31.8937C142.958 33.3342 141.882 34.7747 140.133 34.7747ZM155.597 32.4188C153.713 32.4188 151.83 33.2046 151.157 34.9069L153.444 35.8236C153.982 34.9069 154.79 34.645 155.731 34.645C157.077 34.645 158.288 35.4308 158.422 36.7403V36.8712C158.018 36.6093 156.942 36.2165 155.866 36.2165C153.444 36.2165 151.023 37.526 151.023 39.8831C151.023 42.1093 153.041 43.5498 155.193 43.5498C156.942 43.5498 157.749 42.7641 158.422 41.9784H158.557V43.2879H160.978V37.0022C160.709 34.1212 158.422 32.4188 155.597 32.4188ZM155.332 41.4545C154.525 41.4545 153.314 41.0617 153.314 40.0141C153.314 38.7045 154.794 38.3117 156.005 38.3117C157.081 38.3117 157.619 38.5736 158.292 38.8355C158.023 40.4069 156.678 41.4545 155.332 41.4545ZM169.456 32.8088L166.631 39.8803H166.496L163.536 32.8088H160.846L165.285 42.7612L162.729 48.2612H165.285L172.147 32.8088H169.456ZM146.856 43.2867H149.41V26.9177H146.856V43.2867Z" fill="white"/>
<path fill-rule="evenodd" clip-rule="evenodd" d="M17.0362 13.8234C16.6326 14.2162 16.498 14.871 16.498 15.6567V44.5972C16.498 45.3829 16.7671 46.0377 17.1707 46.4305L17.3052 46.5615L33.9873 30.3234V30.0615L17.0362 13.8234Z" fill="url(#paint0_linear)"/>
<path fill-rule="evenodd" clip-rule="evenodd" d="M39.3703 35.8222L33.8545 30.4532V30.0603L39.3703 24.6913L39.5048 24.8222L46.0969 28.4889C47.9804 29.5365 47.9804 31.2389 46.0969 32.2865L39.3703 35.8222Z" fill="url(#paint1_linear)"/>
<path fill-rule="evenodd" clip-rule="evenodd" d="M39.5033 35.6907L33.8529 30.1907L17.0364 46.5597C17.709 47.2145 18.6508 47.2145 19.8616 46.6907L39.5033 35.6907Z" fill="url(#paint2_linear)"/>
<path fill-rule="evenodd" clip-rule="evenodd" d="M39.5023 24.6914L19.8606 13.8223C18.6498 13.1676 17.7081 13.2985 17.0354 13.9533L33.8519 30.1914L39.5023 24.6914Z" fill="url(#paint3_linear)"/>
<path fill-rule="evenodd" clip-rule="evenodd" d="M39.3688 35.5588L19.8616 46.2969C18.7853 46.9517 17.8436 46.8207 17.1709 46.2969L17.0364 46.4279L17.1709 46.5588C17.8436 47.0826 18.7853 47.2136 19.8616 46.5588L39.3688 35.5588Z" fill="black"/>
<path fill-rule="evenodd" clip-rule="evenodd" d="M17.0362 46.3002C16.6326 45.9074 16.498 45.2526 16.498 44.4669V44.5978C16.498 45.3835 16.7671 46.0383 17.1708 46.4312V46.3002H17.0362ZM46.0983 31.8931L39.3717 35.5597L39.5063 35.6907L46.0983 32.024C47.0401 31.5002 47.4437 30.8454 47.4437 30.1907C47.4437 30.8454 46.9055 31.3692 46.0983 31.8931Z" fill="black"/>
<path opacity="0.25" fill-rule="evenodd" clip-rule="evenodd" d="M19.8616 13.9525L46.0954 28.4882C46.9026 29.012 47.4407 29.5358 47.4407 30.1906C47.4407 29.5358 47.0371 28.881 46.0954 28.3572L19.8616 13.8215C17.9781 12.7739 16.4983 13.5596 16.4983 15.6548V15.7858C16.4983 13.8215 17.9781 12.9048 19.8616 13.9525Z" fill="white"/>
<defs>
<linearGradient id="paint0_linear" x1="26.5028" y1="-5.72456" x2="-0.125664" y2="1.67218" gradientUnits="userSpaceOnUse">
<stop stop-color="#00A0FF"/>
<stop offset="0.007" stop-color="#00A1FF"/>
<stop offset="0.26" stop-color="#00BEFF"/>
<stop offset="0.512" stop-color="#00D2FF"/>
<stop offset="0.76" stop-color="#00DFFF"/>
<stop offset="1" stop-color="#00E3FF"/>
</linearGradient>
<linearGradient id="paint1_linear" x1="48.5643" y1="16.9248" x2="16.0115" y2="16.9248" gradientUnits="userSpaceOnUse">
<stop stop-color="#FFE000"/>
<stop offset="0.409" stop-color="#FFBD00"/>
<stop offset="0.775" stop-color="#FFA500"/>
<stop offset="1" stop-color="#FF9C00"/>
</linearGradient>
<linearGradient id="paint2_linear" x1="16.6098" y1="21.6972" x2="-4.02436" y2="57.287" gradientUnits="userSpaceOnUse">
<stop stop-color="#FF3A44"/>
<stop offset="1" stop-color="#C31162"/>
</linearGradient>
<linearGradient id="paint3_linear" x1="3.96165" y1="9.34315" x2="13.1017" y2="25.2553" gradientUnits="userSpaceOnUse">
<stop stop-color="#32A071"/>
<stop offset="0.069" stop-color="#2DA771"/>
<stop offset="0.476" stop-color="#15CF74"/>
<stop offset="0.801" stop-color="#06E775"/>
<stop offset="1" stop-color="#00F076"/>
</linearGradient>
</defs>
</svg>
