<svg width="26" height="28" viewBox="0 0 26 28" fill="none" xmlns="http://www.w3.org/2000/svg">
<path d="M25.7677 24.373C25.7677 25.1888 25.5236 25.8163 24.9745 26.3811C24.4254 26.9459 23.8153 27.1969 23.0221 27.1969H18.1412V16.7797H21.5579L22.107 12.7634H18.1412V10.2532C18.1412 9.62562 18.2632 9.12359 18.5073 8.80981C18.8123 8.43328 19.3004 8.30777 20.0326 8.30777H22.107V4.79351C21.3138 4.668 20.3376 4.60525 19.1174 4.60525C17.5921 4.60525 16.3719 5.04453 15.4567 5.98585C14.5415 6.92717 14.1755 8.18227 14.1755 9.81389V12.7634H10.6978V16.7797H14.1755V27.1969H2.88834C2.09519 27.1969 1.48508 26.9459 0.935972 26.3811C0.386868 25.8163 0.142822 25.1888 0.142822 24.373V3.66393C0.142822 2.84812 0.386868 2.22057 0.935972 1.65578C1.48508 1.09098 2.1562 0.839966 2.88834 0.839966H23.0221C23.8153 0.839966 24.4254 1.09098 24.9745 1.65578C25.5236 2.22057 25.7677 2.91087 25.7677 3.66393V24.373Z" fill="#B9C3C6"/>
</svg>
