<svg width="27" height="28" viewBox="0 0 27 28" fill="none" xmlns="http://www.w3.org/2000/svg">
<path d="M26.9224 8.55879C26.9851 9.62562 26.9851 11.4455 26.9851 14.0185C26.9851 16.5914 26.9851 18.4113 26.9224 19.5409C26.8596 20.6705 26.6714 21.6118 26.4204 22.4276C26.0438 23.4317 25.5418 24.2475 24.7887 25.0005C24.0357 25.7536 23.2199 26.2556 22.2158 26.6321C21.4 26.8832 20.3959 27.0714 19.3291 27.1342C18.2622 27.1969 16.3796 27.1969 13.8067 27.1969C11.2337 27.1969 9.41383 27.1969 8.28425 27.1342C7.15466 27.0714 6.21334 26.8832 5.39753 26.5694C4.39346 26.2556 3.57764 25.7536 2.82459 25.0005C2.07153 24.2475 1.56949 23.4317 1.19297 22.4276C0.941947 21.6118 0.753683 20.6077 0.690929 19.5409C0.628174 18.474 0.628174 16.5914 0.628174 14.0185C0.628174 11.4455 0.628174 9.62562 0.690929 8.49604C0.753683 7.36645 0.941947 6.42513 1.19297 5.60932C1.56949 4.60525 2.13429 3.78944 2.82459 3.03638C3.51489 2.28332 4.39346 1.78129 5.39753 1.40476C6.21334 1.15374 7.21742 0.965475 8.28425 0.902721C9.35108 0.839966 11.2337 0.839966 13.8067 0.839966C16.3796 0.839966 18.1995 0.839966 19.3291 0.902721C20.4587 0.965475 21.4 1.15374 22.2158 1.40476C23.2199 1.78129 24.0357 2.28332 24.7887 3.03638C25.5418 3.78944 26.0438 4.60525 26.4204 5.60932C26.6714 6.42513 26.8596 7.42921 26.9224 8.55879ZM24.0984 21.8C24.3494 21.1097 24.475 20.0429 24.6005 18.5995C24.6632 17.721 24.6632 16.5286 24.6632 14.9598V13.0771C24.6632 11.4455 24.6632 10.2532 24.6005 9.43736C24.5377 7.93125 24.3494 6.86442 24.0984 6.23687C23.5964 5.04453 22.7806 4.16596 21.5882 3.72668C20.9607 3.47566 19.8939 3.35015 18.3878 3.22464C17.5092 3.16189 16.3168 3.16189 14.748 3.16189H12.8653C11.2965 3.16189 10.1041 3.16189 9.22557 3.22464C7.78221 3.2874 6.71538 3.47566 6.02508 3.72668C4.83274 4.22872 3.95417 5.04453 3.51489 6.23687C3.26387 6.86442 3.13836 7.93125 3.01285 9.43736C2.9501 10.3159 2.9501 11.5083 2.9501 13.0771V14.9598C2.9501 16.5286 2.9501 17.721 3.01285 18.5995C3.07561 20.0429 3.26387 21.1097 3.51489 21.8C4.01693 22.9924 4.89549 23.8709 6.02508 24.3102C6.71538 24.5612 7.78221 24.6868 9.22557 24.8123C10.1041 24.875 11.2965 24.875 12.8653 24.875H14.748C16.3796 24.875 17.5719 24.875 18.3878 24.8123C19.8939 24.7495 20.9607 24.5612 21.5882 24.3102C22.7806 23.8082 23.6591 22.9924 24.0984 21.8ZM13.8067 7.24094C14.999 7.24094 16.1286 7.55472 17.1954 8.18227C18.2622 8.80981 19.0781 9.62562 19.6428 10.6297C20.2076 11.6338 20.5842 12.8261 20.5842 14.0185C20.5842 15.2108 20.2704 16.3404 19.6428 17.4072C19.0153 18.474 18.1995 19.2898 17.1954 19.8546C16.1913 20.4194 14.999 20.796 13.8067 20.796C12.6143 20.796 11.4847 20.4822 10.4179 19.8546C9.35108 19.2271 8.53527 18.4113 7.97047 17.4072C7.40568 16.4031 7.02915 15.2108 7.02915 14.0185C7.02915 12.8261 7.34293 11.6965 7.97047 10.6297C8.59802 9.56287 9.41383 8.74706 10.4179 8.18227C11.422 7.61747 12.6143 7.24094 13.8067 7.24094ZM13.8067 18.4113C14.999 18.4113 16.0658 17.972 16.9444 17.0934C17.823 16.2149 18.2622 15.2108 18.2622 13.9557C18.2622 12.7006 17.823 11.6965 16.9444 10.818C16.0658 9.9394 15.0618 9.50011 13.8067 9.50011C12.5516 9.50011 11.5475 9.9394 10.6689 10.818C9.79036 11.6965 9.35108 12.7006 9.35108 13.9557C9.35108 15.2108 9.79036 16.2149 10.6689 17.0934C11.5475 17.972 12.6143 18.4113 13.8067 18.4113ZM22.4668 6.98993C22.4668 6.55064 22.2785 6.17412 21.9648 5.86034C21.651 5.54657 21.2745 5.3583 20.8352 5.3583C20.3959 5.3583 20.0821 5.54657 19.7684 5.86034C19.4546 6.17412 19.2663 6.55064 19.2663 6.98993C19.2663 7.42921 19.4546 7.80574 19.7684 8.11951C20.0821 8.43328 20.4587 8.62155 20.8979 8.62155C21.3372 8.62155 21.7138 8.43328 21.9648 8.11951C22.2158 7.80574 22.4041 7.36645 22.4668 6.98993Z" fill="#B9C3C6"/>
</svg>
