<svg width="37" height="22" viewBox="0 0 37 22" fill="none" xmlns="http://www.w3.org/2000/svg">
<path d="M36.1453 1.80594C36.0046 2.46167 35.4594 3.55454 34.492 5.08457C33.806 6.17744 32.9793 7.45526 32.0119 8.90122C31.1852 10.0445 30.7455 10.633 30.7103 10.6666C30.4289 11.0533 30.3058 11.3728 30.3058 11.5914C30.3058 11.8099 30.4465 12.079 30.7103 12.3816L31.326 13.0373C34.6327 16.2823 36.4795 18.5185 36.8841 19.7291C37.0248 20.2503 36.972 20.6538 36.7082 20.9396C36.4443 21.2255 36.0574 21.36 35.5121 21.36H31.4667C30.9566 21.36 30.4993 21.2087 30.0947 20.906C29.8133 20.7379 29.3208 20.2671 28.6173 19.4937C27.9137 18.7203 27.2805 18.0814 26.7352 17.5601C24.906 15.8956 23.5516 15.0718 22.6898 15.0718C22.3204 15.0718 22.0566 15.139 21.8983 15.2735C21.74 15.408 21.652 15.6939 21.652 16.131C21.5993 16.4336 21.5817 17.123 21.5817 18.1654V19.8636C21.6344 20.3848 21.4937 20.7547 21.1771 20.9733C20.7726 21.2423 19.9459 21.36 18.6971 21.36C16.5512 21.36 14.3702 20.7547 12.1716 19.5273C9.97295 18.2999 8.03816 16.5682 6.3848 14.2815C4.81938 12.2639 3.51779 10.2295 2.46246 8.17824C1.65336 6.59778 0.984982 5.13501 0.474902 3.77312C0.158301 2.68024 0 1.90682 0 1.46967C0 0.729881 0.457313 0.359985 1.37194 0.359985H5.4174C5.92748 0.359985 6.29685 0.47768 6.5431 0.696254C6.78934 0.914829 7.03559 1.30154 7.21148 1.8732C7.84468 3.62179 8.63618 5.33677 9.55081 7.0013C10.3775 8.53132 11.2042 9.77552 12.0309 10.7339C12.8575 11.6923 13.4907 12.1798 13.9481 12.1798C14.2295 12.1798 14.423 12.079 14.5285 11.8772C14.634 11.6754 14.7044 11.2887 14.7044 10.7339V5.01731C14.6516 4.31115 14.4933 3.70586 14.2295 3.18464C14.0888 2.882 13.8601 2.54573 13.5435 2.15902C13.2269 1.77232 13.0686 1.48649 13.0686 1.23428C13.0686 0.982083 13.1741 0.780322 13.3852 0.612187C13.5963 0.444053 13.8073 0.359985 14.0888 0.359985H20.4736C20.8781 0.359985 21.1771 0.47768 21.3354 0.696254C21.4937 0.914829 21.5817 1.28473 21.5817 1.80594V9.42244C21.5817 9.80914 21.652 10.095 21.7927 10.2799C21.9334 10.4649 22.1093 10.5489 22.3028 10.5489C22.4963 10.5489 22.7425 10.4649 23.024 10.3135C23.3054 10.1622 23.6572 9.84277 24.1321 9.35518C24.9939 8.43044 25.8734 7.30394 26.7352 5.94205C27.3333 4.98368 27.8961 3.92444 28.459 2.78112L29.1449 1.46967C29.4615 0.729881 30.042 0.359985 30.8686 0.359985H34.9141C36.0046 0.359985 36.4092 0.847576 36.1453 1.80594Z" fill="#B9C3C6"/>
</svg>
