<svg width="27" height="27" viewBox="0 0 27 27" fill="none" xmlns="http://www.w3.org/2000/svg">
<path fill-rule="evenodd" clip-rule="evenodd" d="M27.0001 13.44C27.0001 20.8627 20.9828 26.88 13.5601 26.88C6.13741 26.88 0.120117 20.8627 0.120117 13.44C0.120117 6.01729 6.13741 0 13.5601 0C20.9828 0 27.0001 6.01729 27.0001 13.44ZM20.4691 7.75173C21.1887 7.94553 21.7562 8.51288 21.9498 9.2326C22.3097 10.5472 22.2958 13.2872 22.2958 13.2872C22.2958 13.2872 22.2958 16.0133 21.95 17.328C21.7562 18.0476 21.1888 18.6149 20.4691 18.8086C19.1545 19.1547 13.8959 19.1547 13.8959 19.1547C13.8959 19.1547 8.65105 19.1547 7.32265 18.7949C6.60293 18.6011 6.03568 18.0337 5.84189 17.3141C5.49592 16.0133 5.49592 13.2734 5.49592 13.2734C5.49592 13.2734 5.49592 10.5472 5.84189 9.2326C6.03548 8.51298 6.61677 7.93168 7.32255 7.73809C8.63721 7.39202 13.8957 7.39202 13.8957 7.39202C13.8957 7.39202 19.1545 7.39202 20.4691 7.75173ZM12.2215 10.7548V15.7919L16.5944 13.2734L12.2215 10.7548Z" fill="#B9C3C6"/>
</svg>
