<svg width="163" height="161" viewBox="0 0 163 161" fill="none" xmlns="http://www.w3.org/2000/svg">
<path d="M80.5883 38.8597L49.3979 50.8991C37.2024 55.6066 32.4082 67.2831 37.4775 79.9416L49.1769 109.156C54.2319 121.779 65.8424 127.123 78.0379 122.416L109.228 110.376C121.424 105.669 126.182 94.0061 121.127 81.3834L109.428 52.1689C104.358 39.5105 92.7838 34.1522 80.5883 38.8597Z" fill="url(#paint0_linear)"/>
<g opacity="0.6" filter="url(#filter0_f)">
<path d="M83.6094 51.6897L60.2294 60.6812C51.7489 63.9426 48.536 70.1746 51.4913 77.5992L61.5005 102.745C64.5043 110.292 71.1279 112.628 79.6084 109.367L102.988 100.375C111.606 97.0614 114.718 90.9805 111.714 83.4342L101.705 58.288C98.7495 50.8635 92.2266 48.3757 83.6094 51.6897Z" fill="#C11E43"/>
</g>
<g filter="url(#filter1_b)">
<mask id="path-3-outside-1" maskUnits="userSpaceOnUse" x="61.4177" y="56.421" width="80" height="79" fill="black">
<rect fill="white" x="61.4177" y="56.421" width="80" height="79"/>
<path d="M118.044 57.421H84.4123C71.2621 57.421 62.4177 66.5339 62.4177 80.0884V111.371C62.4177 124.887 71.2621 134 84.4123 134H118.044C131.194 134 140 124.887 140 111.371V80.0884C140 66.5339 131.194 57.421 118.044 57.421Z"/>
</mask>
<path d="M118.044 57.421H84.4123C71.2621 57.421 62.4177 66.5339 62.4177 80.0884V111.371C62.4177 124.887 71.2621 134 84.4123 134H118.044C131.194 134 140 124.887 140 111.371V80.0884C140 66.5339 131.194 57.421 118.044 57.421Z" fill="#FF999A" fill-opacity="0.37"/>
<path d="M118.044 58.421C118.597 58.421 119.044 57.9733 119.044 57.421C119.044 56.8687 118.597 56.421 118.044 56.421V58.421ZM118.044 56.421C117.492 56.421 117.044 56.8687 117.044 57.421C117.044 57.9733 117.492 58.421 118.044 58.421V56.421ZM118.044 56.421H84.4123V58.421H118.044V56.421ZM84.4123 56.421C77.5985 56.421 71.8303 58.7871 67.766 62.9754C63.7043 67.1611 61.4177 73.0906 61.4177 80.0884H63.4177C63.4177 73.5317 65.5533 68.1276 69.2013 64.3682C72.8469 60.6114 78.0759 58.421 84.4123 58.421V56.421ZM61.4177 80.0884V111.371H63.4177V80.0884H61.4177ZM61.4177 111.371C61.4177 118.35 63.7048 124.27 67.7665 128.451C71.8306 132.634 77.5986 135 84.4123 135V133C78.0758 133 72.8466 130.81 69.2009 127.057C65.5528 123.302 63.4177 117.908 63.4177 111.371H61.4177ZM84.4123 135H118.044V133H84.4123V135ZM118.044 135C124.858 135 130.617 132.634 134.672 128.45C138.723 124.269 141 118.349 141 111.371H139C139 117.909 136.874 123.304 133.235 127.058C129.6 130.81 124.381 133 118.044 133V135ZM141 111.371V80.0884H139V111.371H141ZM141 80.0884C141 73.0919 138.724 67.1624 134.672 62.9763C130.617 58.7873 124.858 56.421 118.044 56.421V58.421C124.381 58.421 129.599 60.6112 133.235 64.3673C136.873 68.1262 139 73.5305 139 80.0884H141Z" fill="url(#paint1_linear)" mask="url(#path-3-outside-1)"/>
</g>
<g filter="url(#filter2_bd)">
<path fill-rule="evenodd" clip-rule="evenodd" d="M86.5834 87.3333C86.5834 79.9235 92.5903 73.9166 100 73.9166C107.41 73.9166 113.417 79.9235 113.417 87.3333C113.417 88.3821 113.296 89.4028 113.069 90.3824C117.788 92.4606 121.083 97.1768 121.083 102.667C121.083 110.076 115.077 116.083 107.667 116.083C104.818 116.083 102.173 115.193 100 113.678C97.827 115.194 95.184 116.083 92.3334 116.083C84.9236 116.083 78.9167 110.076 78.9167 102.667C78.9167 97.1768 82.2125 92.4606 86.9314 90.3824C86.7038 89.4028 86.5834 88.3821 86.5834 87.3333ZM88.3295 93.9565C85.0355 95.4733 82.7501 98.8048 82.7501 102.667C82.7501 107.959 87.0407 112.25 92.3334 112.25C97.6261 112.25 101.917 107.959 101.917 102.667C101.917 101.971 101.843 101.294 101.703 100.643C101.145 100.714 100.577 100.75 100 100.75C94.999 100.75 90.6369 98.0136 88.3295 93.9565ZM105.402 99.6182C105.63 100.599 105.75 101.619 105.75 102.667C105.75 105.801 104.675 108.684 102.874 110.968C104.284 111.784 105.92 112.25 107.667 112.25C112.959 112.25 117.25 107.959 117.25 102.667C117.25 98.8048 114.965 95.4733 111.671 93.9565C110.25 96.4547 108.05 98.452 105.402 99.6182ZM100 77.75C94.7074 77.75 90.4167 82.0406 90.4167 87.3333C90.4167 92.626 94.7074 96.9166 100 96.9166C105.293 96.9166 109.583 92.626 109.583 87.3333C109.583 82.0406 105.293 77.75 100 77.75Z" fill="url(#paint2_linear)"/>
<path d="M112.971 90.3597L112.953 90.4405L113.028 90.4739C117.712 92.5367 120.983 97.2179 120.983 102.667C120.983 110.021 115.021 115.983 107.667 115.983C104.839 115.983 102.214 115.1 100.057 113.596L100 113.556L99.9431 113.596C97.7861 115.101 95.1629 115.983 92.3334 115.983C84.9788 115.983 79.0167 110.021 79.0167 102.667C79.0167 97.2179 82.2878 92.5367 86.9717 90.4739L87.0476 90.4405L87.0288 90.3597C86.8029 89.3875 86.6834 88.3744 86.6834 87.3333C86.6834 79.9787 92.6455 74.0166 100 74.0166C107.355 74.0166 113.317 79.9787 113.317 87.3333C113.317 88.3744 113.197 89.3875 112.971 90.3597ZM88.4164 93.9071L88.371 93.8273L88.2877 93.8657C84.9595 95.3982 82.6501 98.7644 82.6501 102.667C82.6501 108.014 86.9855 112.35 92.3334 112.35C97.6814 112.35 102.017 108.014 102.017 102.667C102.017 101.964 101.942 101.28 101.801 100.622L101.782 100.532L101.691 100.544C101.137 100.614 100.573 100.65 100 100.65C95.0364 100.65 90.7068 97.9342 88.4164 93.9071ZM105.362 99.5267L105.286 99.5601L105.304 99.6408C105.531 100.614 105.65 101.627 105.65 102.667C105.65 105.778 104.583 108.639 102.796 110.906L102.724 110.997L102.824 111.054C104.249 111.879 105.902 112.35 107.667 112.35C113.015 112.35 117.35 108.014 117.35 102.667C117.35 98.7644 115.041 95.3982 111.712 93.8657L111.629 93.8273L111.584 93.9071C110.173 96.3867 107.99 98.3692 105.362 99.5267ZM100 77.65C94.6521 77.65 90.3167 81.9853 90.3167 87.3333C90.3167 92.6812 94.6521 97.0166 100 97.0166C105.348 97.0166 109.683 92.6812 109.683 87.3333C109.683 81.9853 105.348 77.65 100 77.65Z" stroke="url(#paint3_linear)" stroke-opacity="0.5" stroke-width="0.2"/>
</g>
<defs>
<filter id="filter0_f" x="0.416748" y="0.249146" width="162.413" height="160.553" filterUnits="userSpaceOnUse" color-interpolation-filters="sRGB">
<feFlood flood-opacity="0" result="BackgroundImageFix"/>
<feBlend mode="normal" in="SourceGraphic" in2="BackgroundImageFix" result="shape"/>
<feGaussianBlur stdDeviation="25" result="effect1_foregroundBlur"/>
</filter>
<filter id="filter1_b" x="37.4177" y="32.421" width="127.582" height="126.579" filterUnits="userSpaceOnUse" color-interpolation-filters="sRGB">
<feFlood flood-opacity="0" result="BackgroundImageFix"/>
<feGaussianBlur in="BackgroundImage" stdDeviation="12"/>
<feComposite in2="SourceAlpha" operator="in" result="effect1_backgroundBlur"/>
<feBlend mode="normal" in="SourceGraphic" in2="effect1_backgroundBlur" result="shape"/>
</filter>
<filter id="filter2_bd" x="63.9167" y="58.9166" width="72.1667" height="72.1666" filterUnits="userSpaceOnUse" color-interpolation-filters="sRGB">
<feFlood flood-opacity="0" result="BackgroundImageFix"/>
<feGaussianBlur in="BackgroundImage" stdDeviation="7.5"/>
<feComposite in2="SourceAlpha" operator="in" result="effect1_backgroundBlur"/>
<feColorMatrix in="SourceAlpha" type="matrix" values="0 0 0 0 0 0 0 0 0 0 0 0 0 0 0 0 0 0 127 0"/>
<feOffset dx="5" dy="5"/>
<feGaussianBlur stdDeviation="5"/>
<feColorMatrix type="matrix" values="0 0 0 0 0.988235 0 0 0 0 0.360784 0 0 0 0 0.372549 0 0 0 0.7 0"/>
<feBlend mode="normal" in2="effect1_backgroundBlur" result="effect2_dropShadow"/>
<feBlend mode="normal" in="SourceGraphic" in2="effect2_dropShadow" result="shape"/>
</filter>
<linearGradient id="paint0_linear" x1="83.5794" y1="52.2896" x2="51.5339" y2="116.915" gradientUnits="userSpaceOnUse">
<stop stop-color="#FA597E"/>
<stop offset="1" stop-color="#C11E43"/>
</linearGradient>
<linearGradient id="paint1_linear" x1="74.7676" y1="66.3426" x2="123.479" y2="127.463" gradientUnits="userSpaceOnUse">
<stop stop-color="white" stop-opacity="0.25"/>
<stop offset="1" stop-color="white" stop-opacity="0"/>
</linearGradient>
<linearGradient id="paint2_linear" x1="118.094" y1="81.5311" x2="71.1242" y2="83.0625" gradientUnits="userSpaceOnUse">
<stop stop-color="white"/>
<stop offset="1" stop-color="white" stop-opacity="0.2"/>
</linearGradient>
<linearGradient id="paint3_linear" x1="83.459" y1="88.0615" x2="119.264" y2="88.2591" gradientUnits="userSpaceOnUse">
<stop stop-color="white"/>
<stop offset="1" stop-color="white" stop-opacity="0"/>
</linearGradient>
</defs>
</svg>
