<svg width="163" height="161" viewBox="0 0 163 161" fill="none" xmlns="http://www.w3.org/2000/svg">
<path d="M80.5883 38.8597L49.3979 50.8991C37.2024 55.6066 32.4082 67.2831 37.4775 79.9416L49.1769 109.156C54.2319 121.779 65.8424 127.123 78.0379 122.416L109.228 110.376C121.424 105.669 126.182 94.0061 121.127 81.3834L109.428 52.1689C104.358 39.5105 92.7838 34.1522 80.5883 38.8597Z" fill="url(#paint0_linear)"/>
<g opacity="0.6" filter="url(#filter0_f)">
<path d="M83.6094 51.6897L60.2294 60.6812C51.7489 63.9426 48.536 70.1746 51.4913 77.5992L61.5005 102.745C64.5043 110.292 71.1279 112.628 79.6084 109.367L102.988 100.375C111.606 97.0614 114.718 90.9805 111.714 83.4342L101.705 58.288C98.7495 50.8635 92.2266 48.3757 83.6094 51.6897Z" fill="#C11E43"/>
</g>
<g filter="url(#filter1_b)">
<mask id="path-3-outside-1" maskUnits="userSpaceOnUse" x="61.4177" y="56.421" width="80" height="79" fill="black">
<rect fill="white" x="61.4177" y="56.421" width="80" height="79"/>
<path d="M118.044 57.421H84.4123C71.2621 57.421 62.4177 66.5339 62.4177 80.0884V111.371C62.4177 124.887 71.2621 134 84.4123 134H118.044C131.194 134 140 124.887 140 111.371V80.0884C140 66.5339 131.194 57.421 118.044 57.421Z"/>
</mask>
<path d="M118.044 57.421H84.4123C71.2621 57.421 62.4177 66.5339 62.4177 80.0884V111.371C62.4177 124.887 71.2621 134 84.4123 134H118.044C131.194 134 140 124.887 140 111.371V80.0884C140 66.5339 131.194 57.421 118.044 57.421Z" fill="#FF999A" fill-opacity="0.37"/>
<path d="M118.044 58.421C118.597 58.421 119.044 57.9733 119.044 57.421C119.044 56.8687 118.597 56.421 118.044 56.421V58.421ZM118.044 56.421C117.492 56.421 117.044 56.8687 117.044 57.421C117.044 57.9733 117.492 58.421 118.044 58.421V56.421ZM118.044 56.421H84.4123V58.421H118.044V56.421ZM84.4123 56.421C77.5985 56.421 71.8303 58.7871 67.766 62.9754C63.7043 67.1611 61.4177 73.0906 61.4177 80.0884H63.4177C63.4177 73.5317 65.5533 68.1276 69.2013 64.3682C72.8469 60.6114 78.0759 58.421 84.4123 58.421V56.421ZM61.4177 80.0884V111.371H63.4177V80.0884H61.4177ZM61.4177 111.371C61.4177 118.35 63.7048 124.27 67.7665 128.451C71.8306 132.634 77.5986 135 84.4123 135V133C78.0758 133 72.8466 130.81 69.2009 127.057C65.5528 123.302 63.4177 117.908 63.4177 111.371H61.4177ZM84.4123 135H118.044V133H84.4123V135ZM118.044 135C124.858 135 130.617 132.634 134.672 128.45C138.723 124.269 141 118.349 141 111.371H139C139 117.909 136.874 123.304 133.235 127.058C129.6 130.81 124.381 133 118.044 133V135ZM141 111.371V80.0884H139V111.371H141ZM141 80.0884C141 73.0919 138.724 67.1624 134.672 62.9763C130.617 58.7873 124.858 56.421 118.044 56.421V58.421C124.381 58.421 129.599 60.6112 133.235 64.3673C136.873 68.1262 139 73.5305 139 80.0884H141Z" fill="url(#paint1_linear)" mask="url(#path-3-outside-1)"/>
</g>
<g filter="url(#filter2_bd)">
<path d="M112.355 78.4837C112.261 78.7098 112.122 78.9216 111.939 79.1053L86.0637 104.98C85.3152 105.729 84.1016 105.729 83.3531 104.98C82.6046 104.232 82.6046 103.018 83.3531 102.27L105.956 79.6667H100.521C99.4624 79.6667 98.6042 78.8086 98.6042 77.75C98.6042 76.6915 99.4624 75.8334 100.521 75.8334H110.583C110.843 75.8334 111.091 75.8851 111.317 75.9788C111.543 76.0723 111.755 76.211 111.939 76.3948C112.311 76.7675 112.499 77.2557 112.5 77.7443C112.5 77.7462 112.5 77.7481 112.5 77.75C112.5 77.752 112.5 77.7539 112.5 77.7558C112.499 78.0136 112.448 78.2594 112.355 78.4837Z" fill="url(#paint2_linear)"/>
<path d="M119.208 82.5136C119.208 81.4551 118.35 80.597 117.292 80.597C116.233 80.597 115.375 81.4551 115.375 82.5136V112.33C115.375 113.388 116.233 114.247 117.292 114.247C118.35 114.247 119.208 113.388 119.208 112.33V82.5136Z" fill="url(#paint3_linear)"/>
<path d="M109.625 88.2543C110.684 88.2543 111.542 89.1124 111.542 90.1709V112.334C111.542 113.392 110.684 114.25 109.625 114.25C108.567 114.25 107.708 113.392 107.708 112.334V90.1709C107.708 89.1124 108.567 88.2543 109.625 88.2543Z" fill="url(#paint4_linear)"/>
<path d="M103.875 97.875C103.875 96.8165 103.017 95.9584 101.958 95.9584C100.9 95.9584 100.042 96.8165 100.042 97.875V112.318C100.042 113.377 100.9 114.235 101.958 114.235C103.017 114.235 103.875 113.377 103.875 112.318V97.875Z" fill="url(#paint5_linear)"/>
<path d="M94.2917 102.619C95.3503 102.619 96.2084 103.477 96.2084 104.536V112.356C96.2084 113.414 95.3503 114.272 94.2917 114.272C93.2332 114.272 92.3751 113.414 92.3751 112.356V104.536C92.3751 103.477 93.2332 102.619 94.2917 102.619Z" fill="url(#paint6_linear)"/>
<path d="M86.6251 108.417C87.6836 108.417 88.5417 109.275 88.5417 110.333V112.303C88.5417 113.362 87.6836 114.22 86.6251 114.22C85.5665 114.22 84.7084 113.362 84.7084 112.303V110.333C84.7084 109.275 85.5665 108.417 86.6251 108.417Z" fill="url(#paint7_linear)"/>
<path d="M112.262 78.4454L112.262 78.4455C112.174 78.6596 112.042 78.8603 111.868 79.0346L85.993 104.91C85.2835 105.619 84.1333 105.619 83.4238 104.91C82.7144 104.2 82.7144 103.05 83.4238 102.34L106.027 79.7374L106.198 79.5667H105.956H100.521C99.5176 79.5667 98.7042 78.7534 98.7042 77.75C98.7042 76.7467 99.5176 75.9334 100.521 75.9334H110.583C110.83 75.9334 111.065 75.9824 111.279 76.0712L111.279 76.0712C111.493 76.1598 111.694 76.2912 111.868 76.4655C112.221 76.8188 112.399 77.2813 112.4 77.7446L112.4 77.75L112.4 77.7555C112.399 78 112.35 78.2329 112.262 78.4454ZM117.292 80.697C118.295 80.697 119.108 81.5103 119.108 82.5136V112.33C119.108 113.333 118.295 114.147 117.292 114.147C116.288 114.147 115.475 113.333 115.475 112.33V82.5136C115.475 81.5103 116.288 80.697 117.292 80.697ZM109.625 88.3543C110.628 88.3543 111.442 89.1676 111.442 90.1709V112.334C111.442 113.337 110.628 114.15 109.625 114.15C108.622 114.15 107.808 113.337 107.808 112.334V90.1709C107.808 89.1676 108.622 88.3543 109.625 88.3543ZM101.958 96.0584C102.962 96.0584 103.775 96.8717 103.775 97.875V112.318C103.775 113.322 102.962 114.135 101.958 114.135C100.955 114.135 100.142 113.322 100.142 112.318V97.875C100.142 96.8717 100.955 96.0584 101.958 96.0584ZM94.2917 102.719C95.2951 102.719 96.1084 103.532 96.1084 104.536V112.356C96.1084 113.359 95.2951 114.172 94.2917 114.172C93.2884 114.172 92.4751 113.359 92.4751 112.356V104.536C92.4751 103.532 93.2884 102.719 94.2917 102.719ZM86.6251 108.517C87.6284 108.517 88.4417 109.33 88.4417 110.333V112.303C88.4417 113.307 87.6284 114.12 86.6251 114.12C85.6218 114.12 84.8084 113.307 84.8084 112.303V110.333C84.8084 109.33 85.6218 108.517 86.6251 108.517Z" stroke="url(#paint8_linear)" stroke-opacity="0.5" stroke-width="0.2"/>
</g>
<defs>
<filter id="filter0_f" x="0.416748" y="0.249146" width="162.413" height="160.553" filterUnits="userSpaceOnUse" color-interpolation-filters="sRGB">
<feFlood flood-opacity="0" result="BackgroundImageFix"/>
<feBlend mode="normal" in="SourceGraphic" in2="BackgroundImageFix" result="shape"/>
<feGaussianBlur stdDeviation="25" result="effect1_foregroundBlur"/>
</filter>
<filter id="filter1_b" x="37.4177" y="32.421" width="127.582" height="126.579" filterUnits="userSpaceOnUse" color-interpolation-filters="sRGB">
<feFlood flood-opacity="0" result="BackgroundImageFix"/>
<feGaussianBlur in="BackgroundImage" stdDeviation="12"/>
<feComposite in2="SourceAlpha" operator="in" result="effect1_backgroundBlur"/>
<feBlend mode="normal" in="SourceGraphic" in2="effect1_backgroundBlur" result="shape"/>
</filter>
<filter id="filter2_bd" x="67.7917" y="60.8334" width="66.4167" height="68.4389" filterUnits="userSpaceOnUse" color-interpolation-filters="sRGB">
<feFlood flood-opacity="0" result="BackgroundImageFix"/>
<feGaussianBlur in="BackgroundImage" stdDeviation="7.5"/>
<feComposite in2="SourceAlpha" operator="in" result="effect1_backgroundBlur"/>
<feColorMatrix in="SourceAlpha" type="matrix" values="0 0 0 0 0 0 0 0 0 0 0 0 0 0 0 0 0 0 127 0"/>
<feOffset dx="5" dy="5"/>
<feGaussianBlur stdDeviation="5"/>
<feColorMatrix type="matrix" values="0 0 0 0 0.988235 0 0 0 0 0.360784 0 0 0 0 0.372549 0 0 0 0.7 0"/>
<feBlend mode="normal" in2="effect1_backgroundBlur" result="effect2_dropShadow"/>
<feBlend mode="normal" in="SourceGraphic" in2="effect2_dropShadow" result="shape"/>
</filter>
<linearGradient id="paint0_linear" x1="83.5794" y1="52.2896" x2="51.5339" y2="116.915" gradientUnits="userSpaceOnUse">
<stop stop-color="#FA597E"/>
<stop offset="1" stop-color="#C11E43"/>
</linearGradient>
<linearGradient id="paint1_linear" x1="74.7676" y1="66.3426" x2="123.479" y2="127.463" gradientUnits="userSpaceOnUse">
<stop stop-color="white" stop-opacity="0.25"/>
<stop offset="1" stop-color="white" stop-opacity="0"/>
</linearGradient>
<linearGradient id="paint2_linear" x1="116.626" y1="82.7747" x2="76.0574" y2="84.0278" gradientUnits="userSpaceOnUse">
<stop stop-color="white"/>
<stop offset="1" stop-color="white" stop-opacity="0.2"/>
</linearGradient>
<linearGradient id="paint3_linear" x1="116.626" y1="82.7747" x2="76.0574" y2="84.0278" gradientUnits="userSpaceOnUse">
<stop stop-color="white"/>
<stop offset="1" stop-color="white" stop-opacity="0.2"/>
</linearGradient>
<linearGradient id="paint4_linear" x1="116.626" y1="82.7747" x2="76.0574" y2="84.0278" gradientUnits="userSpaceOnUse">
<stop stop-color="white"/>
<stop offset="1" stop-color="white" stop-opacity="0.2"/>
</linearGradient>
<linearGradient id="paint5_linear" x1="116.626" y1="82.7747" x2="76.0574" y2="84.0278" gradientUnits="userSpaceOnUse">
<stop stop-color="white"/>
<stop offset="1" stop-color="white" stop-opacity="0.2"/>
</linearGradient>
<linearGradient id="paint6_linear" x1="116.626" y1="82.7747" x2="76.0574" y2="84.0278" gradientUnits="userSpaceOnUse">
<stop stop-color="white"/>
<stop offset="1" stop-color="white" stop-opacity="0.2"/>
</linearGradient>
<linearGradient id="paint7_linear" x1="116.626" y1="82.7747" x2="76.0574" y2="84.0278" gradientUnits="userSpaceOnUse">
<stop stop-color="white"/>
<stop offset="1" stop-color="white" stop-opacity="0.2"/>
</linearGradient>
<linearGradient id="paint8_linear" x1="86.7146" y1="88.7278" x2="117.638" y2="88.8895" gradientUnits="userSpaceOnUse">
<stop stop-color="white"/>
<stop offset="1" stop-color="white" stop-opacity="0"/>
</linearGradient>
</defs>
</svg>
