<svg width="163" height="161" viewBox="0 0 163 161" fill="none" xmlns="http://www.w3.org/2000/svg">
<path d="M80.5883 38.8597L49.3979 50.8991C37.2024 55.6066 32.4082 67.2831 37.4775 79.9416L49.1769 109.156C54.2319 121.779 65.8424 127.123 78.0379 122.416L109.228 110.376C121.424 105.669 126.182 94.0061 121.127 81.3834L109.428 52.1689C104.358 39.5105 92.7838 34.1522 80.5883 38.8597Z" fill="url(#paint0_linear)"/>
<g opacity="0.6" filter="url(#filter0_f)">
<path d="M83.6094 51.6897L60.2294 60.6812C51.7489 63.9426 48.536 70.1746 51.4913 77.5992L61.5005 102.745C64.5043 110.292 71.1279 112.628 79.6084 109.367L102.988 100.375C111.606 97.0614 114.718 90.9805 111.714 83.4342L101.705 58.288C98.7495 50.8635 92.2266 48.3757 83.6094 51.6897Z" fill="#C11E43"/>
</g>
<g filter="url(#filter1_b)">
<mask id="path-3-outside-1" maskUnits="userSpaceOnUse" x="61.4177" y="56.421" width="80" height="79" fill="black">
<rect fill="white" x="61.4177" y="56.421" width="80" height="79"/>
<path d="M118.044 57.421H84.4123C71.2621 57.421 62.4177 66.5339 62.4177 80.0884V111.371C62.4177 124.887 71.2621 134 84.4123 134H118.044C131.194 134 140 124.887 140 111.371V80.0884C140 66.5339 131.194 57.421 118.044 57.421Z"/>
</mask>
<path d="M118.044 57.421H84.4123C71.2621 57.421 62.4177 66.5339 62.4177 80.0884V111.371C62.4177 124.887 71.2621 134 84.4123 134H118.044C131.194 134 140 124.887 140 111.371V80.0884C140 66.5339 131.194 57.421 118.044 57.421Z" fill="#FF999A" fill-opacity="0.37"/>
<path d="M118.044 58.421C118.597 58.421 119.044 57.9733 119.044 57.421C119.044 56.8687 118.597 56.421 118.044 56.421V58.421ZM118.044 56.421C117.492 56.421 117.044 56.8687 117.044 57.421C117.044 57.9733 117.492 58.421 118.044 58.421V56.421ZM118.044 56.421H84.4123V58.421H118.044V56.421ZM84.4123 56.421C77.5985 56.421 71.8303 58.7871 67.766 62.9754C63.7043 67.1611 61.4177 73.0906 61.4177 80.0884H63.4177C63.4177 73.5317 65.5533 68.1276 69.2013 64.3682C72.8469 60.6114 78.0759 58.421 84.4123 58.421V56.421ZM61.4177 80.0884V111.371H63.4177V80.0884H61.4177ZM61.4177 111.371C61.4177 118.35 63.7048 124.27 67.7665 128.451C71.8306 132.634 77.5986 135 84.4123 135V133C78.0758 133 72.8466 130.81 69.2009 127.057C65.5528 123.302 63.4177 117.908 63.4177 111.371H61.4177ZM84.4123 135H118.044V133H84.4123V135ZM118.044 135C124.858 135 130.617 132.634 134.672 128.45C138.723 124.269 141 118.349 141 111.371H139C139 117.909 136.874 123.304 133.235 127.058C129.6 130.81 124.381 133 118.044 133V135ZM141 111.371V80.0884H139V111.371H141ZM141 80.0884C141 73.0919 138.724 67.1624 134.672 62.9763C130.617 58.7873 124.858 56.421 118.044 56.421V58.421C124.381 58.421 129.599 60.6112 133.235 64.3673C136.873 68.1262 139 73.5305 139 80.0884H141Z" fill="url(#paint1_linear)" mask="url(#path-3-outside-1)"/>
</g>
<g filter="url(#filter2_bd)">
<path d="M101 73.9166C112.644 73.9166 122.083 83.3559 122.083 95C122.083 106.644 112.644 116.083 101 116.083C89.3561 116.083 79.9167 106.644 79.9167 95C79.9167 83.3559 89.3561 73.9166 101 73.9166ZM101 77.75C91.4732 77.75 83.7501 85.473 83.7501 95C83.7501 104.527 91.4732 112.25 101 112.25C110.527 112.25 118.25 104.527 118.25 95C118.25 85.473 110.527 77.75 101 77.75ZM108.566 99.994C109.512 100.467 109.896 101.619 109.423 102.565C109.082 103.246 108.437 104.158 107.424 105.057C105.742 106.553 103.592 107.458 101 107.458C98.4082 107.458 96.2581 106.553 94.5757 105.057C93.5636 104.158 92.9178 103.246 92.5774 102.565C92.104 101.619 92.4878 100.467 93.4346 99.994C94.3138 99.5544 95.3692 99.8539 95.8946 100.657L96.0061 100.851C96.1449 101.129 96.5173 101.655 97.1224 102.192C98.1353 103.093 99.3992 103.625 101 103.625C102.601 103.625 103.865 103.093 104.878 102.192C105.396 101.731 105.744 101.279 105.92 100.985L105.994 100.851C106.467 99.9043 107.619 99.5206 108.566 99.994ZM107.708 87.3333C108.691 87.3333 109.501 88.0732 109.612 89.0264L109.625 89.25V93.0833C109.625 94.1418 108.767 95 107.708 95C106.725 95 105.915 94.26 105.805 93.3068L105.792 93.0833V89.25C105.792 88.1914 106.65 87.3333 107.708 87.3333ZM94.2917 87.3333C95.2747 87.3333 96.0848 88.0732 96.1955 89.0264L96.2084 89.25V93.0833C96.2084 94.1418 95.3503 95 94.2917 95C93.3088 95 92.4987 94.26 92.388 93.3068L92.3751 93.0833V89.25C92.3751 88.1914 93.2332 87.3333 94.2917 87.3333Z" fill="url(#paint2_linear)"/>
<path d="M106.006 101.036L106.006 101.036L106.008 101.033L106.082 100.9L106.082 100.9L106.084 100.896C106.532 99.9985 107.623 99.6347 108.521 100.083C109.418 100.532 109.782 101.623 109.333 102.521C108.999 103.189 108.361 104.091 107.358 104.983C105.693 106.462 103.567 107.358 101 107.358C98.4334 107.358 96.3067 106.462 94.6421 104.983C93.6388 104.091 93.0011 103.189 92.6669 102.521C92.2182 101.623 92.5819 100.532 93.4793 100.083C94.3117 99.6672 95.3109 99.95 95.8093 100.709L95.9179 100.898C96.0645 101.19 96.4453 101.724 97.056 102.267C98.087 103.184 99.3745 103.725 101 103.725C102.626 103.725 103.913 103.184 104.944 102.267C105.47 101.8 105.824 101.34 106.006 101.036ZM101 74.0166C112.589 74.0166 121.983 83.4112 121.983 95C121.983 106.589 112.589 115.983 101 115.983C89.4113 115.983 80.0167 106.589 80.0167 95C80.0167 83.4112 89.4113 74.0166 101 74.0166ZM101 77.65C91.4179 77.65 83.6501 85.4178 83.6501 95C83.6501 104.582 91.4179 112.35 101 112.35C110.582 112.35 118.35 104.582 118.35 95C118.35 85.4178 110.582 77.65 101 77.65ZM107.708 87.4333C108.639 87.4333 109.406 88.1331 109.513 89.0351L109.525 89.2528V93.0833C109.525 94.0866 108.712 94.9 107.708 94.9C106.778 94.9 106.011 94.2001 105.904 93.2981L105.892 93.0804V89.25C105.892 88.2466 106.705 87.4333 107.708 87.4333ZM94.2917 87.4333C95.2224 87.4333 95.9896 88.1331 96.0959 89.0351L96.1084 89.2528V93.0833C96.1084 94.0866 95.2951 94.9 94.2917 94.9C93.3611 94.9 92.5939 94.2001 92.4876 93.2981L92.4751 93.0804V89.25C92.4751 88.2466 93.2884 87.4333 94.2917 87.4333Z" stroke="url(#paint3_linear)" stroke-opacity="0.5" stroke-width="0.2"/>
</g>
<defs>
<filter id="filter0_f" x="0.416748" y="0.249146" width="162.413" height="160.553" filterUnits="userSpaceOnUse" color-interpolation-filters="sRGB">
<feFlood flood-opacity="0" result="BackgroundImageFix"/>
<feBlend mode="normal" in="SourceGraphic" in2="BackgroundImageFix" result="shape"/>
<feGaussianBlur stdDeviation="25" result="effect1_foregroundBlur"/>
</filter>
<filter id="filter1_b" x="37.4177" y="32.421" width="127.582" height="126.579" filterUnits="userSpaceOnUse" color-interpolation-filters="sRGB">
<feFlood flood-opacity="0" result="BackgroundImageFix"/>
<feGaussianBlur in="BackgroundImage" stdDeviation="12"/>
<feComposite in2="SourceAlpha" operator="in" result="effect1_backgroundBlur"/>
<feBlend mode="normal" in="SourceGraphic" in2="effect1_backgroundBlur" result="shape"/>
</filter>
<filter id="filter2_bd" x="64.9167" y="58.9166" width="72.1667" height="72.1667" filterUnits="userSpaceOnUse" color-interpolation-filters="sRGB">
<feFlood flood-opacity="0" result="BackgroundImageFix"/>
<feGaussianBlur in="BackgroundImage" stdDeviation="7.5"/>
<feComposite in2="SourceAlpha" operator="in" result="effect1_backgroundBlur"/>
<feColorMatrix in="SourceAlpha" type="matrix" values="0 0 0 0 0 0 0 0 0 0 0 0 0 0 0 0 0 0 127 0"/>
<feOffset dx="5" dy="5"/>
<feGaussianBlur stdDeviation="5"/>
<feColorMatrix type="matrix" values="0 0 0 0 0.988235 0 0 0 0 0.360784 0 0 0 0 0.372549 0 0 0 0.7 0"/>
<feBlend mode="normal" in2="effect1_backgroundBlur" result="effect2_dropShadow"/>
<feBlend mode="normal" in="SourceGraphic" in2="effect2_dropShadow" result="shape"/>
</filter>
<linearGradient id="paint0_linear" x1="83.5794" y1="52.2896" x2="51.5339" y2="116.915" gradientUnits="userSpaceOnUse">
<stop stop-color="#FA597E"/>
<stop offset="1" stop-color="#C11E43"/>
</linearGradient>
<linearGradient id="paint1_linear" x1="74.7676" y1="66.3426" x2="123.479" y2="127.463" gradientUnits="userSpaceOnUse">
<stop stop-color="white" stop-opacity="0.25"/>
<stop offset="1" stop-color="white" stop-opacity="0"/>
</linearGradient>
<linearGradient id="paint2_linear" x1="119.094" y1="81.5311" x2="72.1242" y2="83.0625" gradientUnits="userSpaceOnUse">
<stop stop-color="white"/>
<stop offset="1" stop-color="white" stop-opacity="0.2"/>
</linearGradient>
<linearGradient id="paint3_linear" x1="84.459" y1="88.0615" x2="120.264" y2="88.2592" gradientUnits="userSpaceOnUse">
<stop stop-color="white"/>
<stop offset="1" stop-color="white" stop-opacity="0"/>
</linearGradient>
</defs>
</svg>
