<svg width="163" height="161" viewBox="0 0 163 161" fill="none" xmlns="http://www.w3.org/2000/svg">
<path d="M80.5883 38.8597L49.3979 50.8991C37.2024 55.6066 32.4082 67.2831 37.4775 79.9416L49.1769 109.156C54.2319 121.779 65.8424 127.123 78.0379 122.416L109.228 110.376C121.424 105.669 126.182 94.0061 121.127 81.3834L109.428 52.1689C104.358 39.5105 92.7838 34.1522 80.5883 38.8597Z" fill="url(#paint0_linear)"/>
<g opacity="0.6" filter="url(#filter0_f)">
<path d="M83.6094 51.6897L60.2294 60.6812C51.7489 63.9426 48.536 70.1746 51.4913 77.5992L61.5005 102.745C64.5043 110.292 71.1279 112.628 79.6084 109.367L102.988 100.375C111.606 97.0614 114.718 90.9805 111.714 83.4342L101.705 58.288C98.7495 50.8635 92.2266 48.3757 83.6094 51.6897Z" fill="#C11E43"/>
</g>
<g filter="url(#filter1_b)">
<mask id="path-3-outside-1" maskUnits="userSpaceOnUse" x="61.4177" y="56.421" width="80" height="79" fill="black">
<rect fill="white" x="61.4177" y="56.421" width="80" height="79"/>
<path d="M118.044 57.421H84.4123C71.2621 57.421 62.4177 66.5339 62.4177 80.0884V111.371C62.4177 124.887 71.2621 134 84.4123 134H118.044C131.194 134 140 124.887 140 111.371V80.0884C140 66.5339 131.194 57.421 118.044 57.421Z"/>
</mask>
<path d="M118.044 57.421H84.4123C71.2621 57.421 62.4177 66.5339 62.4177 80.0884V111.371C62.4177 124.887 71.2621 134 84.4123 134H118.044C131.194 134 140 124.887 140 111.371V80.0884C140 66.5339 131.194 57.421 118.044 57.421Z" fill="#FF999A" fill-opacity="0.37"/>
<path d="M118.044 58.421C118.597 58.421 119.044 57.9733 119.044 57.421C119.044 56.8687 118.597 56.421 118.044 56.421V58.421ZM118.044 56.421C117.492 56.421 117.044 56.8687 117.044 57.421C117.044 57.9733 117.492 58.421 118.044 58.421V56.421ZM118.044 56.421H84.4123V58.421H118.044V56.421ZM84.4123 56.421C77.5985 56.421 71.8303 58.7871 67.766 62.9754C63.7043 67.1611 61.4177 73.0906 61.4177 80.0884H63.4177C63.4177 73.5317 65.5533 68.1276 69.2013 64.3682C72.8469 60.6114 78.0759 58.421 84.4123 58.421V56.421ZM61.4177 80.0884V111.371H63.4177V80.0884H61.4177ZM61.4177 111.371C61.4177 118.35 63.7048 124.27 67.7665 128.451C71.8306 132.634 77.5986 135 84.4123 135V133C78.0758 133 72.8466 130.81 69.2009 127.057C65.5528 123.302 63.4177 117.908 63.4177 111.371H61.4177ZM84.4123 135H118.044V133H84.4123V135ZM118.044 135C124.858 135 130.617 132.634 134.672 128.45C138.723 124.269 141 118.349 141 111.371H139C139 117.909 136.874 123.304 133.235 127.058C129.6 130.81 124.381 133 118.044 133V135ZM141 111.371V80.0884H139V111.371H141ZM141 80.0884C141 73.0919 138.724 67.1624 134.672 62.9763C130.617 58.7873 124.858 56.421 118.044 56.421V58.421C124.381 58.421 129.599 60.6112 133.235 64.3673C136.873 68.1262 139 73.5305 139 80.0884H141Z" fill="url(#paint1_linear)" mask="url(#path-3-outside-1)"/>
</g>
<g filter="url(#filter2_bd)">
<path d="M93.6458 99.4167C92.5643 99.4167 91.6875 100.293 91.6875 101.375C91.6875 102.457 92.5643 103.333 93.6458 103.333H107.354C108.436 103.333 109.312 102.457 109.312 101.375C109.312 100.293 108.436 99.4167 107.354 99.4167H93.6458Z" fill="url(#paint2_linear)"/>
<path d="M91.6875 107.25C91.6875 106.168 92.5643 105.292 93.6458 105.292H100.5C101.582 105.292 102.458 106.168 102.458 107.25C102.458 108.332 101.582 109.208 100.5 109.208H93.6458C92.5643 109.208 91.6875 108.332 91.6875 107.25Z" fill="url(#paint3_linear)"/>
<path d="M107.76 86.114C108.525 85.3492 108.525 84.1092 107.76 83.3445C106.995 82.5797 105.755 82.5797 104.99 83.3445L98.5417 89.793L96.0098 87.2611C95.245 86.4963 94.005 86.4963 93.2402 87.2611C92.4755 88.0259 92.4755 89.2658 93.2402 90.0306L97.1569 93.9473C97.9217 94.7121 99.1616 94.7121 99.9264 93.9473L107.76 86.114Z" fill="url(#paint4_linear)"/>
<path fill-rule="evenodd" clip-rule="evenodd" d="M86.7917 73.9584C84.6286 73.9584 82.875 75.7119 82.875 77.875V113.125C82.875 115.288 84.6286 117.042 86.7917 117.042H114.208C116.371 117.042 118.125 115.288 118.125 113.125V77.875C118.125 75.7119 116.371 73.9584 114.208 73.9584H86.7917ZM86.7917 77.875H114.208V113.125H86.7917V77.875Z" fill="url(#paint5_linear)"/>
<path d="M98.471 89.8638L98.5417 89.9345L98.6124 89.8638L105.061 83.4152C105.787 82.6894 106.963 82.6894 107.689 83.4152C108.415 84.1409 108.415 85.3175 107.689 86.0432L99.8557 93.8766C99.13 94.6023 97.9534 94.6023 97.2276 93.8766L93.311 89.9599C92.5852 89.2342 92.5852 88.0576 93.311 87.3318C94.0367 86.6061 95.2133 86.6061 95.939 87.3318L98.471 89.8638ZM86.7917 77.775H86.6917V77.875V113.125V113.225H86.7917H114.208H114.308V113.125V77.875V77.775H114.208H86.7917ZM91.7875 101.375C91.7875 100.349 92.6195 99.5167 93.6458 99.5167H107.354C108.38 99.5167 109.212 100.349 109.212 101.375C109.212 102.401 108.38 103.233 107.354 103.233H93.6458C92.6195 103.233 91.7875 102.401 91.7875 101.375ZM91.7875 107.25C91.7875 106.224 92.6195 105.392 93.6458 105.392H100.5C101.526 105.392 102.358 106.224 102.358 107.25C102.358 108.276 101.526 109.108 100.5 109.108H93.6458C92.6195 109.108 91.7875 108.276 91.7875 107.25ZM82.975 77.875C82.975 75.7672 84.6838 74.0584 86.7917 74.0584H114.208C116.316 74.0584 118.025 75.7672 118.025 77.875V113.125C118.025 115.233 116.316 116.942 114.208 116.942H86.7917C84.6838 116.942 82.975 115.233 82.975 113.125V77.875Z" stroke="url(#paint6_linear)" stroke-opacity="0.5" stroke-width="0.2"/>
</g>
<defs>
<filter id="filter0_f" x="0.416748" y="0.249146" width="162.413" height="160.553" filterUnits="userSpaceOnUse" color-interpolation-filters="sRGB">
<feFlood flood-opacity="0" result="BackgroundImageFix"/>
<feBlend mode="normal" in="SourceGraphic" in2="BackgroundImageFix" result="shape"/>
<feGaussianBlur stdDeviation="25" result="effect1_foregroundBlur"/>
</filter>
<filter id="filter1_b" x="37.4177" y="32.421" width="127.582" height="126.579" filterUnits="userSpaceOnUse" color-interpolation-filters="sRGB">
<feFlood flood-opacity="0" result="BackgroundImageFix"/>
<feGaussianBlur in="BackgroundImage" stdDeviation="12"/>
<feComposite in2="SourceAlpha" operator="in" result="effect1_backgroundBlur"/>
<feBlend mode="normal" in="SourceGraphic" in2="effect1_backgroundBlur" result="shape"/>
</filter>
<filter id="filter2_bd" x="67.875" y="58.9584" width="65.25" height="73.0833" filterUnits="userSpaceOnUse" color-interpolation-filters="sRGB">
<feFlood flood-opacity="0" result="BackgroundImageFix"/>
<feGaussianBlur in="BackgroundImage" stdDeviation="7.5"/>
<feComposite in2="SourceAlpha" operator="in" result="effect1_backgroundBlur"/>
<feColorMatrix in="SourceAlpha" type="matrix" values="0 0 0 0 0 0 0 0 0 0 0 0 0 0 0 0 0 0 127 0"/>
<feOffset dx="5" dy="5"/>
<feGaussianBlur stdDeviation="5"/>
<feColorMatrix type="matrix" values="0 0 0 0 0.988235 0 0 0 0 0.360784 0 0 0 0 0.372549 0 0 0 0.7 0"/>
<feBlend mode="normal" in2="effect1_backgroundBlur" result="effect2_dropShadow"/>
<feBlend mode="normal" in="SourceGraphic" in2="effect2_dropShadow" result="shape"/>
</filter>
<linearGradient id="paint0_linear" x1="83.5794" y1="52.2896" x2="51.5339" y2="116.915" gradientUnits="userSpaceOnUse">
<stop stop-color="#FA597E"/>
<stop offset="1" stop-color="#C11E43"/>
</linearGradient>
<linearGradient id="paint1_linear" x1="74.7676" y1="66.3426" x2="123.479" y2="127.463" gradientUnits="userSpaceOnUse">
<stop stop-color="white" stop-opacity="0.25"/>
<stop offset="1" stop-color="white" stop-opacity="0"/>
</linearGradient>
<linearGradient id="paint2_linear" x1="115.626" y1="81.7384" x2="76.3469" y2="82.7862" gradientUnits="userSpaceOnUse">
<stop stop-color="white"/>
<stop offset="1" stop-color="white" stop-opacity="0.2"/>
</linearGradient>
<linearGradient id="paint3_linear" x1="115.626" y1="81.7384" x2="76.3469" y2="82.7862" gradientUnits="userSpaceOnUse">
<stop stop-color="white"/>
<stop offset="1" stop-color="white" stop-opacity="0.2"/>
</linearGradient>
<linearGradient id="paint4_linear" x1="115.626" y1="81.7384" x2="76.3469" y2="82.7862" gradientUnits="userSpaceOnUse">
<stop stop-color="white"/>
<stop offset="1" stop-color="white" stop-opacity="0.2"/>
</linearGradient>
<linearGradient id="paint5_linear" x1="115.626" y1="81.7384" x2="76.3469" y2="82.7862" gradientUnits="userSpaceOnUse">
<stop stop-color="white"/>
<stop offset="1" stop-color="white" stop-opacity="0.2"/>
</linearGradient>
<linearGradient id="paint6_linear" x1="86.6722" y1="88.4108" x2="116.605" y2="88.5459" gradientUnits="userSpaceOnUse">
<stop stop-color="white"/>
<stop offset="1" stop-color="white" stop-opacity="0"/>
</linearGradient>
</defs>
</svg>
