<svg width="24" height="24" viewBox="0 0 24 24" fill="none" xmlns="http://www.w3.org/2000/svg">
<path d="M23.687 0.313044C23.2696 -0.104348 22.6087 -0.104348 22.2261 0.313044L12 10.5391L1.77391 0.313044C1.35652 -0.104348 0.695652 -0.104348 0.313044 0.313044C-0.104348 0.730435 -0.104348 1.3913 0.313044 1.77391L10.5391 12L0.313044 22.2261C-0.104348 22.6435 -0.104348 23.3043 0.313044 23.687C0.521739 23.8957 0.8 24 1.04348 24C1.28696 24 1.56522 23.8957 1.77391 23.687L12 13.4609L22.2261 23.687C22.4348 23.8957 22.713 24 22.9565 24C23.2 24 23.4783 23.8957 23.687 23.687C24.1043 23.2696 24.1043 22.6087 23.687 22.2261L13.4609 12L23.687 1.77391C24.1043 1.35652 24.1043 0.730435 23.687 0.313044Z" fill="#B9C3C6"/>
</svg>
